<svg width="56" height="56" viewBox="0 0 56 56" fill="none" xmlns="http://www.w3.org/2000/svg">
<path d="M9.33 40.38H3.56C4.63543 42.5036 5.97982 44.4798 7.56 46.26H14.5L9.33 40.38Z" fill="#ECF1C5"/>
<path d="M51.67 38.8L41.43 28.56C41.1978 28.3272 40.9219 28.1425 40.6182 28.0164C40.3144 27.8904 39.9888 27.8255 39.66 27.8255C39.3312 27.8255 39.0056 27.8904 38.7018 28.0164C38.3981 28.1425 38.1222 28.3272 37.89 28.56C37.89 28.56 29.46 37.02 26.89 39.62C26.6567 39.8615 26.377 40.0533 26.0677 40.1839C25.7583 40.3145 25.4258 40.3812 25.09 40.38H21.36V46.26H25.53C25.841 46.2607 26.149 46.1991 26.4358 46.0789C26.7226 45.9586 26.9824 45.7822 27.2 45.56C29.56 43.13 37.35 35.34 37.35 35.34C37.7846 34.9083 38.3724 34.666 38.985 34.666C39.5976 34.666 40.1854 34.9083 40.62 35.34L49.88 44.6C51.0138 43.1176 51.9923 41.5225 52.8 39.84L51.67 38.8Z" fill="#ECF1C5"/>
<path d="M37.01 40.23C37.01 40.23 28.59 48.69 26.01 51.3C25.7742 51.5374 25.4937 51.7259 25.1848 51.8546C24.8759 51.9833 24.5446 52.0497 24.21 52.05H14.87C20.0971 54.9205 26.1185 56.0059 32.0189 55.1414C37.9193 54.2768 43.3762 51.5095 47.56 47.26L40.56 40.26C40.3289 40.0249 40.0537 39.8376 39.7502 39.7089C39.4468 39.5801 39.1209 39.5124 38.7912 39.5096C38.4615 39.5069 38.1346 39.569 37.8289 39.6926C37.5233 39.8162 37.245 39.9988 37.01 40.23Z" fill="#ECF1C5"/>
<path d="M42.27 20.8C39.1 17.6 34.15 12.63 34.15 12.63C33.9097 12.3934 33.6203 12.2125 33.3024 12.1002C32.9844 11.9879 32.6456 11.9468 32.31 11.98L23.8 20.49L42.27 20.8Z" fill="#ECF1C5"/>
<path d="M26.34 11.9C22.88 8.4 17.46 2.97 17.46 2.97C17.1992 2.71153 16.8851 2.51317 16.5396 2.3888C16.1942 2.26443 15.8257 2.21706 15.46 2.25L6.16 11.56L26.34 11.9Z" fill="#ECF1C5"/>
<path d="M28.01 55.93C22.9417 55.9225 17.9708 54.537 13.6293 51.9218C9.28775 49.3066 5.73907 45.5601 3.36298 41.0833C0.986902 36.6064 -0.127141 31.5677 0.140077 26.5064C0.407295 21.4451 2.04572 16.5518 4.88 12.35C4.91618 12.2955 4.96293 12.2487 5.01747 12.2126C5.07201 12.1764 5.13325 12.1515 5.19757 12.1394C5.26188 12.1273 5.32797 12.1282 5.39194 12.142C5.4559 12.1559 5.51645 12.1824 5.57 12.22C5.67961 12.2933 5.75581 12.407 5.78203 12.5362C5.80825 12.6654 5.78237 12.7998 5.71 12.91C2.17743 18.1624 0.61099 24.4926 1.28643 30.7863C1.96186 37.0799 4.83588 42.9336 9.40254 47.3167C13.9692 51.6999 19.9357 54.3316 26.2518 54.7485C32.5678 55.1654 38.8285 53.3408 43.9317 49.596C49.0349 45.8511 52.6534 40.426 54.1502 34.2757C55.6471 28.1254 54.9263 21.6442 52.1148 15.9731C49.3032 10.302 44.5812 5.80444 38.78 3.27227C32.9787 0.740089 26.4701 0.335599 20.4 2.13C20.3343 2.14839 20.2657 2.15366 20.198 2.14552C20.1303 2.13738 20.0649 2.11598 20.0054 2.08255C19.946 2.04912 19.8937 2.00431 19.8516 1.95069C19.8095 1.89706 19.7784 1.83566 19.76 1.77C19.7416 1.70434 19.7363 1.6357 19.7445 1.568C19.7526 1.50031 19.774 1.43487 19.8075 1.37544C19.8409 1.31601 19.8857 1.26375 19.9393 1.22164C19.9929 1.17953 20.0543 1.14839 20.12 1.13C23.9591 0.0200317 27.9916 -0.253757 31.9455 0.327102C35.8994 0.90796 39.6828 2.32996 43.0404 4.49719C46.3981 6.66442 49.2519 9.52648 51.4095 12.8903C53.5671 16.2542 54.9782 20.0416 55.5477 23.9972C56.1173 27.9527 55.8319 31.9844 54.7109 35.8203C53.5899 39.6562 51.6594 43.2071 49.0495 46.2335C46.4396 49.26 43.2111 51.6915 39.5817 53.3642C35.9522 55.0369 32.0063 55.9118 28.01 55.93Z" fill="#75953F"/>
<path d="M18.81 53.71C18.6774 53.71 18.5502 53.6573 18.4564 53.5636C18.3627 53.4698 18.31 53.3426 18.31 53.21V21.01C18.3126 20.8782 18.3661 20.7525 18.4593 20.6593C18.5525 20.5661 18.6782 20.5126 18.81 20.51C18.9426 20.51 19.0698 20.5627 19.1636 20.6564C19.2573 20.7502 19.31 20.8774 19.31 21.01V53.21C19.31 53.3426 19.2573 53.4698 19.1636 53.5636C19.0698 53.6573 18.9426 53.71 18.81 53.71Z" fill="#75953F"/>
<path d="M19.45 38.74H19.33C19.2567 38.7159 19.1898 38.6755 19.1344 38.6218C19.0789 38.5681 19.0364 38.5025 19.01 38.43C17.94 35.82 19.56 31.88 23.01 28.84C26.46 25.8 30.5 24.63 33.01 25.99C33.0796 26.0291 33.1393 26.0838 33.1844 26.1497C33.2294 26.2156 33.2588 26.291 33.27 26.37C33.2775 26.45 33.2661 26.5306 33.2365 26.6054C33.207 26.6801 33.1602 26.7468 33.1 26.8L19.78 38.61C19.6891 38.6914 19.572 38.7375 19.45 38.74ZM30.51 26.43C27.907 26.6503 25.4612 27.7672 23.59 29.59C20.87 32.02 19.34 35.13 19.71 37.33L31.71 26.58C31.3182 26.4781 30.9148 26.4277 30.51 26.43Z" fill="#75953F"/>
<path d="M18.25 46.87C18.1183 46.8671 17.9929 46.8133 17.9 46.72L11.32 40.03C11.2648 39.9724 11.2242 39.9023 11.2016 39.8258C11.1789 39.7492 11.175 39.6684 11.19 39.59C11.204 39.5118 11.2368 39.4381 11.2856 39.3754C11.3343 39.3127 11.3976 39.2628 11.47 39.23C12.9 38.56 15.14 39.33 16.9 41.12C18.66 42.91 19.4 45.12 18.7 46.58C18.6649 46.6526 18.613 46.7158 18.5487 46.7645C18.4844 46.8132 18.4094 46.8459 18.33 46.86L18.25 46.87ZM12.68 39.99L18.01 45.36C17.8077 44.0229 17.1882 42.7838 16.2401 41.8195C15.292 40.8552 14.0635 40.2149 12.73 39.99H12.68Z" fill="#75953F"/>
<path d="M18.82 21.96C18.7389 21.9593 18.6593 21.9389 18.5879 21.9006C18.5164 21.8623 18.4554 21.8072 18.41 21.74C17.51 20.44 17.9 18.11 19.41 16.07C20.92 14.03 22.96 12.93 24.49 13.37C24.567 13.3934 24.6375 13.4347 24.6955 13.4905C24.7535 13.5463 24.7975 13.6151 24.8238 13.6912C24.8501 13.7673 24.8581 13.8485 24.847 13.9283C24.8359 14.008 24.8061 14.084 24.76 14.15L19.28 21.75C19.2275 21.8212 19.1577 21.8779 19.0772 21.9147C18.9968 21.9514 18.9082 21.967 18.82 21.96ZM23.36 14.31C22.0495 14.6859 20.9175 15.5198 20.17 16.66C19.3412 17.7317 18.9291 19.0676 19.01 20.42L23.36 14.31Z" fill="#75953F"/>
<path d="M26.34 32.57C26.2741 32.584 26.2059 32.584 26.14 32.57C26.0551 32.5331 25.9821 32.4734 25.9291 32.3975C25.8762 32.3216 25.8453 32.2324 25.84 32.14V31.99C25.84 31.87 25.84 31.75 25.84 31.63C25.8262 29.6653 26.4199 27.7443 27.54 26.13C27.6028 26.0457 27.6901 25.9828 27.79 25.95C28.5989 25.6105 29.469 25.4406 30.3462 25.4509C31.2235 25.4612 32.0893 25.6515 32.89 26.01C32.9596 26.0491 33.0193 26.1038 33.0644 26.1697C33.1094 26.2356 33.1387 26.311 33.15 26.39C33.1575 26.47 33.1461 26.5506 33.1165 26.6254C33.087 26.7001 33.0402 26.7668 32.98 26.82L26.67 32.47C26.5753 32.5414 26.4584 32.5769 26.34 32.57ZM28.26 26.82C27.4313 28.0513 26.9415 29.4792 26.84 30.96L31.72 26.59C30.5687 26.3309 29.3669 26.4108 28.26 26.82Z" fill="#75953F"/>
<path d="M22.65 35.87H22.5C22.4188 35.8432 22.3458 35.7961 22.2881 35.733C22.2303 35.67 22.1896 35.5932 22.17 35.51C21.6036 33.3224 21.845 31.0039 22.85 28.98C22.8812 28.9236 22.9218 28.8729 22.97 28.83C26.35 25.83 30.43 24.66 32.89 26.01C32.9596 26.0491 33.0193 26.1038 33.0644 26.1697C33.1094 26.2356 33.1388 26.311 33.15 26.39C33.1575 26.47 33.1461 26.5507 33.1165 26.6254C33.087 26.7001 33.0402 26.7668 32.98 26.82L23.01 35.74C22.9628 35.7862 22.9063 35.8218 22.8442 35.8442C22.782 35.8667 22.7158 35.8755 22.65 35.87ZM23.65 29.49C23.1258 30.6313 22.8595 31.8741 22.87 33.13C22.8693 33.552 22.9027 33.9734 22.97 34.39L31.72 26.56C29.62 25.99 26.4 27.13 23.7 29.49H23.65Z" fill="#75953F"/>
<path d="M18.17 34C18.0463 34.0001 17.9262 33.9578 17.83 33.88L4.63 22.07C4.57243 22.0148 4.52831 21.9472 4.50107 21.8722C4.47382 21.7973 4.46418 21.7171 4.47288 21.6378C4.48158 21.5585 4.50839 21.4823 4.55124 21.4151C4.59409 21.3479 4.65183 21.2914 4.72 21.25C7.19 19.9 11.29 21.07 14.72 24.11C18.15 27.15 19.72 31.11 18.66 33.69C18.63 33.7644 18.5826 33.8305 18.5216 33.8827C18.4607 33.935 18.3881 33.9717 18.31 33.99L18.17 34ZM5.89 21.85L17.89 32.6C18.25 30.41 16.72 27.29 14 24.86C11.28 22.43 8.01 21.25 5.89 21.85Z" fill="#75953F"/>
<path d="M11.28 27.84C11.1544 27.8409 11.033 27.7945 10.94 27.71L4.63 22.07C4.57243 22.0148 4.52831 21.9472 4.50107 21.8722C4.47382 21.7973 4.46418 21.7171 4.47288 21.6378C4.48158 21.5586 4.50839 21.4824 4.55124 21.4151C4.59409 21.3479 4.65183 21.2914 4.72 21.25C5.52305 20.8936 6.39029 20.7044 7.26882 20.6941C8.14736 20.6838 9.0188 20.8525 9.83 21.19C9.92922 21.2291 10.0157 21.2949 10.08 21.38C11.1984 22.985 11.7986 24.8938 11.8 26.85C11.8 26.98 11.8 27.1 11.8 27.22V27.37C11.7971 27.463 11.7672 27.5532 11.7139 27.6296C11.6606 27.7059 11.5863 27.7651 11.5 27.8C11.4315 27.8325 11.3556 27.8463 11.28 27.84ZM5.89 21.84L10.78 26.21C10.6598 24.7501 10.1675 23.3454 9.35 22.13C8.24661 21.7102 7.04654 21.6131 5.89 21.85V21.84Z" fill="#75953F"/>
<path d="M15.01 31.13C14.888 31.1275 14.7709 31.0814 14.68 31L4.68 22.06C4.62243 22.0048 4.57832 21.9372 4.55107 21.8622C4.52383 21.7873 4.51418 21.7071 4.52288 21.6278C4.53158 21.5485 4.55839 21.4723 4.60124 21.4051C4.6441 21.3379 4.70183 21.2814 4.77 21.24C7.23 19.9 11.31 21.06 14.7 24.07C14.7474 24.1111 14.785 24.1624 14.81 24.22C15.4619 25.5244 15.8041 26.9617 15.81 28.42C15.8052 29.2054 15.7078 29.9874 15.52 30.75C15.4986 30.8339 15.4561 30.911 15.3966 30.974C15.3371 31.037 15.2626 31.0838 15.18 31.11L15.01 31.13ZM5.94001 21.84L14.7 29.67C14.7595 29.256 14.7895 28.8383 14.79 28.42C14.7903 27.1501 14.5067 25.8962 13.96 24.75C11.21 22.39 8.01001 21.26 5.89001 21.85L5.94001 21.84Z" fill="#75953F"/>
<path d="M16.34 48.13H8.92C8.78739 48.13 8.66021 48.0773 8.56644 47.9836C8.47268 47.8898 8.42 47.7626 8.42 47.63C8.42 47.4974 8.47268 47.3702 8.56644 47.2765C8.66021 47.1827 8.78739 47.13 8.92 47.13H16.34C16.4726 47.13 16.5998 47.1827 16.6936 47.2765C16.7873 47.3702 16.84 47.4974 16.84 47.63C16.84 47.7626 16.7873 47.8898 16.6936 47.9836C16.5998 48.0773 16.4726 48.13 16.34 48.13Z" fill="#75953F"/>
<path d="M28.4 48.13H20.85C20.7182 48.1274 20.5925 48.0739 20.4993 47.9807C20.4061 47.8875 20.3526 47.7618 20.35 47.63C20.35 47.4974 20.4027 47.3702 20.4965 47.2765C20.5902 47.1827 20.7174 47.13 20.85 47.13H28.4C28.7257 47.1313 29.0483 47.0673 29.3488 46.9419C29.6494 46.8166 29.9218 46.6323 30.15 46.4L39.26 37.26C39.7588 36.7617 40.435 36.4818 41.14 36.4818C41.845 36.4818 42.5212 36.7617 43.02 37.26L50.12 44.36C50.1669 44.4065 50.2041 44.4618 50.2295 44.5227C50.2548 44.5836 50.2679 44.649 50.2679 44.715C50.2679 44.781 50.2548 44.8464 50.2295 44.9073C50.2041 44.9682 50.1669 45.0235 50.12 45.07C50.0249 45.1623 49.8975 45.2138 49.765 45.2138C49.6325 45.2138 49.5052 45.1623 49.41 45.07L42.31 37.97C42.1558 37.8155 41.9727 37.6929 41.771 37.6093C41.5694 37.5256 41.3533 37.4826 41.135 37.4826C40.9167 37.4826 40.7006 37.5256 40.499 37.6093C40.2973 37.6929 40.1142 37.8155 39.96 37.97C39.96 37.97 33.28 44.67 30.86 47.11C30.2071 47.7618 29.3226 48.1285 28.4 48.13Z" fill="#75953F"/>
<path d="M27.77 37.94H24.25C24.1174 37.94 23.9902 37.8873 23.8964 37.7936C23.8027 37.6998 23.75 37.5726 23.75 37.44C23.75 37.3074 23.8027 37.1802 23.8964 37.0864C23.9902 36.9927 24.1174 36.94 24.25 36.94H27.77C28.038 36.9416 28.3035 36.8893 28.5509 36.7862C28.7983 36.6831 29.0224 36.5314 29.21 36.34C31.77 33.73 40.21 25.27 40.21 25.27C40.4887 24.9903 40.8199 24.7684 41.1845 24.617C41.5492 24.4656 41.9402 24.3876 42.335 24.3876C42.7298 24.3876 43.1208 24.4656 43.4855 24.617C43.8501 24.7684 44.1813 24.9903 44.46 25.27L54.69 35.51C54.7842 35.6042 54.837 35.7319 54.837 35.865C54.837 35.9982 54.7842 36.1258 54.69 36.22C54.5958 36.3142 54.4681 36.367 54.335 36.367C54.2018 36.367 54.0742 36.3142 53.98 36.22L43.74 25.98C43.5543 25.794 43.3337 25.6465 43.0909 25.5459C42.8481 25.4452 42.5878 25.3934 42.325 25.3934C42.0622 25.3934 41.8019 25.4452 41.5591 25.5459C41.3163 25.6465 41.0957 25.794 40.91 25.98C40.91 25.98 32.48 34.43 29.91 37.04C29.631 37.3247 29.298 37.5509 28.9306 37.7054C28.5631 37.8599 28.1686 37.9397 27.77 37.94Z" fill="#75953F"/>
<path d="M54.43 21.79H47.01C46.5601 21.7949 46.1138 21.7089 45.6979 21.537C45.2821 21.3652 44.9052 21.1111 44.59 20.79L35.59 11.65C35.2837 11.3513 34.8728 11.1841 34.445 11.1841C34.0172 11.1841 33.6063 11.3513 33.3 11.65L26.3 18.76C26.2058 18.8541 26.0781 18.907 25.945 18.907C25.8118 18.907 25.6841 18.8541 25.59 18.76C25.4958 18.6658 25.4429 18.5381 25.4429 18.405C25.4429 18.2718 25.4958 18.1441 25.59 18.05L32.59 10.95C33.0854 10.4644 33.7513 10.1925 34.445 10.1925C35.1386 10.1925 35.8046 10.4644 36.3 10.95L45.3 20.09C45.5197 20.319 45.7837 20.501 46.076 20.6247C46.3682 20.7485 46.6826 20.8115 47 20.81H54.42C54.5526 20.81 54.6798 20.8627 54.7735 20.9564C54.8673 21.0502 54.92 21.1774 54.92 21.31C54.9149 21.4374 54.8614 21.558 54.7703 21.6473C54.6792 21.7365 54.5575 21.7875 54.43 21.79Z" fill="#75953F"/>
<path d="M51.13 13.64H39.68C39.5474 13.64 39.4202 13.5873 39.3264 13.4936C39.2327 13.3998 39.18 13.2726 39.18 13.14C39.1826 13.0082 39.2361 12.8825 39.3293 12.7893C39.4225 12.6961 39.5482 12.6426 39.68 12.64H51.13C51.2618 12.6426 51.3875 12.6961 51.4807 12.7893C51.5739 12.8825 51.6274 13.0082 51.63 13.14C51.63 13.2726 51.5773 13.3998 51.4836 13.4936C51.3898 13.5873 51.2626 13.64 51.13 13.64Z" fill="#75953F"/>
<path d="M30.51 12.47C30.3749 12.4697 30.2454 12.4157 30.15 12.32C27.21 9.32 19.58 1.68 19.58 1.68C19.3941 1.49254 19.1729 1.34375 18.9291 1.24221C18.6854 1.14068 18.424 1.0884 18.16 1.0884C17.896 1.0884 17.6346 1.14068 17.3908 1.24221C17.1471 1.34375 16.9259 1.49254 16.74 1.68L6.5 11.91C6.45351 11.9569 6.39821 11.9941 6.33728 12.0194C6.27635 12.0448 6.211 12.0579 6.14499 12.0579C6.07899 12.0579 6.01364 12.0448 5.95271 12.0194C5.89178 11.9941 5.83647 11.9569 5.78999 11.91C5.69838 11.8165 5.64706 11.6909 5.64706 11.56C5.64706 11.4291 5.69838 11.3035 5.78999 11.21L16.01 0.969997C16.2887 0.690318 16.6199 0.468406 16.9845 0.31699C17.3492 0.165574 17.7402 0.0876312 18.135 0.0876312C18.5298 0.0876312 18.9208 0.165574 19.2854 0.31699C19.6501 0.468406 19.9813 0.690318 20.26 0.969997C20.26 0.969997 27.9 8.63 30.84 11.62C30.8869 11.6665 30.9241 11.7218 30.9494 11.7827C30.9748 11.8436 30.9879 11.909 30.9879 11.975C30.9879 12.041 30.9748 12.1064 30.9494 12.1673C30.9241 12.2282 30.8869 12.2835 30.84 12.33C30.7491 12.4129 30.6327 12.4623 30.51 12.47Z" fill="#75953F"/>
<path d="M15.24 37.94H2.24001C2.1074 37.94 1.98022 37.8873 1.88645 37.7936C1.79268 37.6998 1.74001 37.5726 1.74001 37.44C1.74001 37.3074 1.79268 37.1802 1.88645 37.0864C1.98022 36.9927 2.1074 36.94 2.24001 36.94H15.24C15.3726 36.94 15.4998 36.9927 15.5936 37.0864C15.6873 37.1802 15.74 37.3074 15.74 37.44C15.74 37.5726 15.6873 37.6998 15.5936 37.7936C15.4998 37.8873 15.3726 37.94 15.24 37.94Z" fill="#75953F"/>
<path d="M18.81 4.13H18.49C18.3574 4.13 18.2302 4.07732 18.1365 3.98355C18.0427 3.88978 17.99 3.76261 17.99 3.63C17.99 3.49739 18.0427 3.37021 18.1365 3.27644C18.2302 3.18268 18.3574 3.13 18.49 3.13H18.81C18.9418 3.13256 19.0675 3.18606 19.1607 3.27928C19.2539 3.37249 19.3074 3.49819 19.31 3.63C19.31 3.76261 19.2573 3.88978 19.1636 3.98355C19.0698 4.07732 18.9426 4.13 18.81 4.13Z" fill="#75953F"/>
<path d="M17.36 4.13H16.19C16.0574 4.13 15.9302 4.07732 15.8364 3.98355C15.7427 3.88978 15.69 3.76261 15.69 3.63C15.69 3.49739 15.7427 3.37021 15.8364 3.27644C15.9302 3.18268 16.0574 3.13 16.19 3.13H17.36C17.4926 3.13 17.6198 3.18268 17.7136 3.27644C17.8073 3.37021 17.86 3.49739 17.86 3.63C17.86 3.76261 17.8073 3.88978 17.7136 3.98355C17.6198 4.07732 17.4926 4.13 17.36 4.13Z" fill="#75953F"/>
<path d="M20.09 7.13H19.24C19.1074 7.13 18.9802 7.07732 18.8865 6.98355C18.7927 6.88978 18.74 6.76261 18.74 6.63C18.74 6.49739 18.7927 6.37021 18.8865 6.27644C18.9802 6.18268 19.1074 6.13 19.24 6.13H20.09C20.2218 6.13256 20.3475 6.18606 20.4407 6.27928C20.5339 6.37249 20.5874 6.49819 20.59 6.63C20.59 6.76261 20.5373 6.88978 20.4436 6.98355C20.3498 7.07732 20.2226 7.13 20.09 7.13Z" fill="#75953F"/>
<path d="M18.01 7.13H13.75C13.6174 7.13 13.4902 7.07732 13.3964 6.98355C13.3027 6.88978 13.25 6.76261 13.25 6.63C13.2526 6.49819 13.3061 6.37249 13.3993 6.27928C13.4925 6.18606 13.6182 6.13256 13.75 6.13H18.01C18.1426 6.13 18.2698 6.18268 18.3636 6.27644C18.4573 6.37021 18.51 6.49739 18.51 6.63C18.51 6.76261 18.4573 6.88978 18.3636 6.98355C18.2698 7.07732 18.1426 7.13 18.01 7.13Z" fill="#75953F"/>
<path d="M24.25 10.27H23.17C23.0374 10.27 22.9102 10.2173 22.8164 10.1236C22.7227 10.0298 22.67 9.9026 22.67 9.77C22.67 9.63739 22.7227 9.51021 22.8164 9.41644C22.9102 9.32268 23.0374 9.27 23.17 9.27H24.25C24.3826 9.27 24.5098 9.32268 24.6035 9.41644C24.6973 9.51021 24.75 9.63739 24.75 9.77C24.75 9.9026 24.6973 10.0298 24.6035 10.1236C24.5098 10.2173 24.3826 10.27 24.25 10.27Z" fill="#75953F"/>
<path d="M21.92 10.27H10.75C10.6174 10.27 10.4902 10.2173 10.3964 10.1236C10.3027 10.0298 10.25 9.9026 10.25 9.77C10.25 9.63739 10.3027 9.51021 10.3964 9.41644C10.4902 9.32268 10.6174 9.27 10.75 9.27H21.92C22.0526 9.27 22.1798 9.32268 22.2736 9.41644C22.3673 9.51021 22.42 9.63739 22.42 9.77C22.42 9.9026 22.3673 10.0298 22.2736 10.1236C22.1798 10.2173 22.0526 10.27 21.92 10.27Z" fill="#75953F"/>
<path d="M35.35 14.2H35.01C34.8774 14.2 34.7502 14.1473 34.6564 14.0536C34.5627 13.9598 34.51 13.8326 34.51 13.7C34.51 13.5674 34.5627 13.4402 34.6564 13.3464C34.7502 13.2527 34.8774 13.2 35.01 13.2H35.33C35.4626 13.2 35.5898 13.2527 35.6835 13.3464C35.7773 13.4402 35.83 13.5674 35.83 13.7C35.83 13.8326 35.7773 13.9598 35.6835 14.0536C35.5898 14.1473 35.4626 14.2 35.33 14.2H35.35Z" fill="#75953F"/>
<path d="M33.9 14.2H32.73C32.5974 14.2 32.4702 14.1473 32.3764 14.0536C32.2827 13.9598 32.23 13.8326 32.23 13.7C32.23 13.5674 32.2827 13.4402 32.3764 13.3464C32.4702 13.2527 32.5974 13.2 32.73 13.2H33.9C34.0326 13.2 34.1598 13.2527 34.2535 13.3464C34.3473 13.4402 34.4 13.5674 34.4 13.7C34.4 13.8326 34.3473 13.9598 34.2535 14.0536C34.1598 14.1473 34.0326 14.2 33.9 14.2Z" fill="#75953F"/>
<path d="M36.63 17.21H35.77C35.6374 17.21 35.5102 17.1573 35.4165 17.0635C35.3227 16.9698 35.27 16.8426 35.27 16.71C35.2726 16.5782 35.3261 16.4525 35.4193 16.3593C35.5125 16.2661 35.6382 16.2126 35.77 16.21H36.63C36.7618 16.2126 36.8875 16.2661 36.9807 16.3593C37.0739 16.4525 37.1274 16.5782 37.13 16.71C37.13 16.8426 37.0773 16.9698 36.9836 17.0635C36.8898 17.1573 36.7626 17.21 36.63 17.21Z" fill="#75953F"/>
<path d="M34.5 17.21H30.29C30.1574 17.21 30.0302 17.1573 29.9364 17.0635C29.8427 16.9698 29.79 16.8426 29.79 16.71C29.79 16.5774 29.8427 16.4502 29.9364 16.3564C30.0302 16.2627 30.1574 16.21 30.29 16.21H34.5C34.6318 16.2126 34.7575 16.2661 34.8507 16.3593C34.9439 16.4525 34.9974 16.5782 35 16.71C35 16.8426 34.9473 16.9698 34.8536 17.0635C34.7598 17.1573 34.6326 17.21 34.5 17.21Z" fill="#75953F"/>
<path d="M40.79 20.35H39.71C39.5774 20.35 39.4502 20.2973 39.3564 20.2036C39.2627 20.1098 39.21 19.9826 39.21 19.85C39.21 19.7174 39.2627 19.5902 39.3564 19.4964C39.4502 19.4027 39.5774 19.35 39.71 19.35H40.79C40.9226 19.35 41.0498 19.4027 41.1435 19.4964C41.2373 19.5902 41.29 19.7174 41.29 19.85C41.2874 19.9818 41.2339 20.1075 41.1407 20.2007C41.0475 20.2939 40.9218 20.3474 40.79 20.35Z" fill="#75953F"/>
<path d="M38.46 20.35H27.29C27.1574 20.35 27.0302 20.2973 26.9364 20.2036C26.8427 20.1098 26.79 19.9826 26.79 19.85C26.79 19.7174 26.8427 19.5902 26.9364 19.4964C27.0302 19.4027 27.1574 19.35 27.29 19.35H38.46C38.5926 19.35 38.7198 19.4027 38.8136 19.4964C38.9073 19.5902 38.96 19.7174 38.96 19.85C38.9574 19.9818 38.9039 20.1075 38.8107 20.2007C38.7175 20.2939 38.5918 20.3474 38.46 20.35Z" fill="#75953F"/>
</svg>
