<svg width="56" height="57" viewBox="0 0 56 57" fill="none" xmlns="http://www.w3.org/2000/svg">
<path d="M28.01 56.63C22.4721 56.63 17.0586 54.9878 12.454 51.9111C7.84946 48.8345 4.26063 44.4615 2.14138 39.3451C0.0221264 34.2288 -0.532367 28.5989 0.548019 23.1675C1.62841 17.736 4.29515 12.7469 8.21102 8.83101C12.1269 4.91514 17.116 2.24839 22.5475 1.16801C27.9789 0.0876206 33.6088 0.642114 38.7251 2.76137C43.8415 4.88062 48.2145 8.46945 51.2912 13.074C54.3678 17.6786 56.01 23.0921 56.01 28.63C56.01 36.0561 53.06 43.178 47.809 48.429C42.558 53.68 35.4361 56.63 28.01 56.63ZM28.01 1.63C22.6699 1.63 17.4497 3.21352 13.0096 6.18032C8.56948 9.14712 5.10882 13.3639 3.06526 18.2975C1.02169 23.2312 0.487004 28.66 1.5288 33.8974C2.57061 39.1349 5.1421 43.9459 8.91812 47.7219C12.6941 51.4979 17.5051 54.0694 22.7426 55.1112C27.9801 56.153 33.4089 55.6183 38.3425 53.5747C43.2761 51.5312 47.4929 48.0705 50.4597 43.6304C53.4265 39.1903 55.01 33.9701 55.01 28.63C55.01 21.4692 52.1654 14.6016 47.1019 9.53812C42.0384 4.47463 35.1709 1.63 28.01 1.63Z" fill="#75953F"/>
<path d="M27.9 56.57C27.7674 56.57 27.6402 56.5173 27.5464 56.4235C27.4527 56.3298 27.4 56.2026 27.4 56.07V17.72C27.4 17.5874 27.4527 17.4602 27.5464 17.3664C27.6402 17.2727 27.7674 17.22 27.9 17.22C28.0326 17.22 28.1598 17.2727 28.2536 17.3664C28.3473 17.4602 28.4 17.5874 28.4 17.72V56.07C28.4 56.2026 28.3473 56.3298 28.2536 56.4235C28.1598 56.5173 28.0326 56.57 27.9 56.57Z" fill="#75953F"/>
<path d="M28.65 38.73H28.54C28.4612 38.7134 28.3878 38.6772 28.3266 38.6248C28.2655 38.5723 28.2185 38.5054 28.19 38.43C26.93 35.37 28.85 30.72 32.86 27.13C36.87 23.54 41.71 22.13 44.62 23.74C44.6906 23.7779 44.7511 23.8322 44.7964 23.8983C44.8416 23.9644 44.8703 24.0405 44.88 24.12C44.8902 24.2002 44.8799 24.2816 44.8502 24.3568C44.8205 24.432 44.7723 24.4984 44.71 24.55L29.01 38.61C28.9104 38.6957 28.7811 38.7389 28.65 38.73ZM41.83 24.07C39.37 24.07 36.22 25.45 33.53 27.86C30.19 30.86 28.35 34.69 28.9 37.34L43.47 24.34C42.9407 24.1654 42.3874 24.0743 41.83 24.07Z" fill="#75953F"/>
<path d="M27.23 48.42C27.0957 48.4156 26.9677 48.3623 26.87 48.27L19.04 40.27C18.9849 40.2116 18.9443 40.1411 18.9216 40.0641C18.8989 39.9871 18.8946 39.9058 18.9093 39.8269C18.9239 39.748 18.9569 39.6736 19.0057 39.6098C19.0545 39.5461 19.1176 39.4947 19.19 39.46C20.86 38.68 23.48 39.6 25.55 41.7C27.62 43.8 28.49 46.43 27.68 48.1C27.645 48.1717 27.593 48.2338 27.5285 48.2809C27.464 48.328 27.389 48.3585 27.31 48.37L27.23 48.42ZM20.37 40.23L26.97 46.94C26.787 45.2414 26.0356 43.6545 24.8376 42.4366C23.6396 41.2186 22.0653 40.4411 20.37 40.23Z" fill="#75953F"/>
<path d="M27.91 18.75C27.8286 18.7511 27.7483 18.7315 27.6766 18.693C27.6048 18.6545 27.5441 18.5984 27.5 18.53C26.44 17.01 26.91 14.28 28.63 11.89C30.35 9.5 32.8 8.19 34.58 8.71C34.656 8.7332 34.7253 8.77417 34.7823 8.82951C34.8393 8.88485 34.8823 8.95298 34.9077 9.02825C34.9331 9.10351 34.9402 9.18375 34.9285 9.26231C34.9167 9.34087 34.8864 9.41549 34.84 9.48L28.32 18.54C28.2724 18.6041 28.2106 18.6565 28.1395 18.6929C28.0684 18.7293 27.9899 18.7488 27.91 18.75ZM33.52 9.61C31.8753 10.0755 30.4366 11.0839 29.438 12.4711C28.4394 13.8583 27.9396 15.5426 28.02 17.25L33.52 9.61Z" fill="#75953F"/>
<path d="M36.86 31.39C36.7974 31.4042 36.7325 31.4042 36.67 31.39C36.5825 31.3556 36.5068 31.2968 36.4518 31.2205C36.3969 31.1443 36.365 31.0539 36.36 30.96V30.78C36.36 30.64 36.36 30.5 36.36 30.35C36.3484 28.0425 37.0466 25.7873 38.36 23.89C38.4222 23.8029 38.5094 23.7366 38.61 23.7C40.96 22.91 43.09 22.93 44.61 23.77C44.6806 23.8079 44.7411 23.8622 44.7863 23.9283C44.8316 23.9944 44.8603 24.0705 44.87 24.15C44.8802 24.2302 44.8699 24.3116 44.8402 24.3868C44.8105 24.462 44.7622 24.5284 44.7 24.58L37.18 31.31C37.0854 31.3721 36.9726 31.4003 36.86 31.39ZM39.09 24.56C38.0435 26.1125 37.4386 27.9203 37.34 29.79L43.46 24.31C42.0117 23.9482 40.4876 24.0354 39.09 24.56Z" fill="#75953F"/>
<path d="M32.47 35.32H32.32C32.2374 35.2938 32.1629 35.247 32.1034 35.184C32.0439 35.121 32.0014 35.0439 31.98 34.96C31.7525 34.0609 31.635 33.1375 31.63 32.21C31.6237 30.4759 32.0208 28.7642 32.79 27.21C32.8185 27.1518 32.8594 27.1005 32.91 27.06C36.91 23.5 41.73 22.12 44.62 23.71C44.6906 23.7479 44.7511 23.8022 44.7963 23.8683C44.8416 23.9344 44.8703 24.0105 44.88 24.09C44.8902 24.1702 44.8799 24.2517 44.8502 24.3268C44.8205 24.402 44.7722 24.4684 44.71 24.52L32.8 35.19C32.7563 35.2324 32.7047 35.2658 32.648 35.2881C32.5914 35.3104 32.5309 35.3212 32.47 35.32ZM33.65 27.76C32.983 29.141 32.641 30.6564 32.65 32.19C32.6512 32.7533 32.7014 33.3154 32.8 33.87L43.48 24.31C40.92 23.49 37.01 24.85 33.65 27.76Z" fill="#75953F"/>
<path d="M27.13 33.13C27.008 33.1275 26.8909 33.0814 26.8 33L11.07 18.9C11.0078 18.8484 10.9595 18.782 10.9298 18.7068C10.9001 18.6316 10.8898 18.5502 10.9 18.47C10.9113 18.3909 10.9406 18.3155 10.9857 18.2496C11.0307 18.1837 11.0904 18.1291 11.16 18.09C14.07 16.49 18.9 17.89 22.92 21.48C26.94 25.07 28.85 29.72 27.59 32.79C27.561 32.864 27.5136 32.9294 27.4524 32.9801C27.3912 33.0308 27.3181 33.0652 27.24 33.08L27.13 33.13ZM12.31 18.68L26.88 31.68C27.43 29.03 25.59 25.19 22.25 22.2C18.91 19.21 14.89 17.84 12.31 18.68Z" fill="#75953F"/>
<path d="M18.92 25.75C18.7991 25.7512 18.6819 25.7086 18.59 25.63L11.07 18.9C11.0078 18.8484 10.9595 18.782 10.9298 18.7068C10.9001 18.6316 10.8898 18.5502 10.9 18.47C10.9113 18.3909 10.9406 18.3155 10.9857 18.2496C11.0307 18.1837 11.0904 18.1291 11.16 18.09C12.103 17.6717 13.1213 17.4498 14.1528 17.4378C15.1843 17.4258 16.2075 17.6238 17.16 18.02C17.2606 18.0566 17.3478 18.1229 17.41 18.21C18.7248 20.1103 19.423 22.3692 19.41 24.68C19.41 24.82 19.41 24.96 19.41 25.11V25.28C19.4034 25.3746 19.371 25.4657 19.3164 25.5432C19.2617 25.6208 19.1869 25.6819 19.1 25.72C19.0418 25.7387 18.9811 25.7488 18.92 25.75ZM12.32 18.68L18.44 24.13C18.3425 22.2586 17.7337 20.4497 16.68 18.9C15.2839 18.3798 13.7614 18.303 12.32 18.68Z" fill="#75953F"/>
<path d="M23.31 29.68C23.1891 29.6812 23.0719 29.6386 22.98 29.56L11.07 18.9C11.0078 18.8484 10.9595 18.782 10.9298 18.7068C10.9001 18.6316 10.8898 18.5502 10.9 18.47C10.9113 18.3909 10.9406 18.3155 10.9857 18.2496C11.0307 18.1837 11.0904 18.1291 11.16 18.09C14.05 16.5 18.87 17.88 22.87 21.44C22.9182 21.4828 22.9588 21.5336 22.99 21.59C23.7589 23.1443 24.156 24.856 24.15 26.59C24.145 27.5142 24.0275 28.4343 23.8 29.33C23.7786 29.4139 23.7361 29.491 23.6766 29.554C23.6171 29.617 23.5426 29.6638 23.46 29.69C23.4098 29.6964 23.3589 29.693 23.31 29.68ZM12.31 18.68L23.01 28.23C23.1086 27.6788 23.1588 27.12 23.16 26.56C23.1678 25.0233 22.8258 23.505 22.16 22.12C18.82 19.21 14.86 17.85 12.31 18.68Z" fill="#75953F"/>
</svg>
