<svg width="57" height="57" viewBox="0 0 57 57" fill="none" xmlns="http://www.w3.org/2000/svg">
<path d="M40.29 37.48C42.0083 35.8843 43.9199 34.5102 45.98 33.39C45.4847 31.789 44.8765 30.2251 44.16 28.71C41.29 22.6 37.29 18.42 34.23 17.91C34.09 18.51 33.96 19.13 33.86 19.74L33.74 23.18C34.3718 25.4135 35.1536 27.6018 36.08 29.73C37.2373 32.4396 38.6468 35.0343 40.29 37.48Z" fill="#ECF1C5"/>
<path d="M8.29999 43.99C7.27482 43.9897 6.27234 43.6881 5.41716 43.1228C4.56198 42.5574 3.89183 41.7531 3.48999 40.81H0.599991C0.60264 42.2007 1.15694 43.5334 2.14122 44.5159C3.1255 45.4983 4.45934 46.05 5.84999 46.05H33.72C34.0636 45.3438 34.4441 44.6562 34.86 43.99H8.29999Z" fill="#ECF1C5"/>
<path d="M39.33 43.02C39.325 41.1052 39.6637 39.2051 40.33 37.41C39.98 37.72 39.63 38.05 39.33 38.41C34.14 43.55 31.47 49.68 32.21 53.82C32.84 51.16 35.65 48.28 39.68 46.25C39.4553 45.1878 39.338 44.1057 39.33 43.02Z" fill="#ECF1C5"/>
<path d="M29.56 38.06C20.46 38.06 13.07 31.06 13.07 22.34C13.0798 18.7199 14.3772 15.2213 16.73 12.47H5.00999C6.75882 16.4337 7.66465 20.7176 7.67 25.05V34.51C7.67 35.98 9.12 37.18 10.95 37.25V40.89H30.12V38.03C29.92 38.04 29.75 38.06 29.56 38.06Z" fill="#ECF1C5"/>
<path d="M30.1 41.39H10.93C10.7982 41.3874 10.6725 41.3339 10.5793 41.2407C10.4861 41.1475 10.4326 41.0218 10.43 40.89V37.7C9.59164 37.6548 8.79791 37.308 8.19513 36.7236C7.59235 36.1392 7.22115 35.3566 7.14999 34.52V25.05C7.14819 20.7859 6.25581 16.5692 4.53 12.67C4.49061 12.5979 4.46997 12.5171 4.46997 12.435C4.46997 12.3529 4.49061 12.2721 4.53 12.2C4.57517 12.1296 4.63729 12.0716 4.71066 12.0315C4.78404 11.9913 4.86634 11.9701 4.95 11.97H36.01C36.0932 11.9697 36.1751 11.9902 36.2484 12.0295C36.3216 12.0689 36.3839 12.1259 36.4296 12.1954C36.4753 12.2649 36.5029 12.3447 36.5099 12.4276C36.517 12.5105 36.5033 12.5938 36.47 12.67C34.7419 16.5688 33.8461 20.7853 33.84 25.05V34.52C33.7709 35.3573 33.4003 36.1411 32.7971 36.7259C32.1939 37.3108 31.399 37.6569 30.56 37.7V40.89C30.5604 41.016 30.5132 41.1374 30.428 41.2301C30.3427 41.3228 30.2255 41.3799 30.1 41.39ZM11.43 40.39H29.6V37.25C29.5999 37.1208 29.6498 36.9966 29.7393 36.9033C29.8288 36.8101 29.9509 36.7552 30.08 36.75C31.65 36.69 32.88 35.75 32.88 34.52V25.05C32.8813 20.9041 33.7003 16.7991 35.29 12.97H5.73999C7.32972 16.7991 8.14869 20.9041 8.14999 25.05V34.52C8.14999 35.71 9.38 36.69 10.95 36.75C11.0791 36.7552 11.2012 36.8101 11.2907 36.9033C11.3802 36.9966 11.4301 37.1208 11.43 37.25V40.39Z" fill="#75953F"/>
<path d="M28.65 37.57H12.39C12.2574 37.57 12.1302 37.5173 12.0364 37.4236C11.9427 37.3298 11.89 37.2026 11.89 37.07C11.89 36.9374 11.9427 36.8102 12.0364 36.7164C12.1302 36.6227 12.2574 36.57 12.39 36.57H28.65C28.7826 36.57 28.9098 36.6227 29.0036 36.7164C29.0973 36.8102 29.15 36.9374 29.15 37.07C29.1474 37.2018 29.0939 37.3275 29.0007 37.4207C28.9075 37.5139 28.7818 37.5674 28.65 37.57Z" fill="#75953F"/>
<path d="M32.18 54.3C32.0662 54.2969 31.9571 54.2543 31.8713 54.1795C31.7856 54.1046 31.7285 54.0023 31.71 53.89C30.91 49.42 33.71 43.2 38.96 38.04C44.47 32.58 51.15 29.78 55.57 31.04C55.6534 31.0602 55.7299 31.1024 55.7914 31.1622C55.853 31.222 55.8974 31.2972 55.92 31.38C56.86 34.73 55.44 39.46 52.13 44.04C52.0766 44.1128 52.0052 44.1704 51.9228 44.2073C51.8404 44.2441 51.7498 44.2588 51.66 44.25C48.5864 43.9579 45.4868 44.3753 42.6 45.47C37.42 47.33 33.44 50.71 32.68 53.88C32.6628 53.9992 32.6024 54.108 32.5102 54.1854C32.4179 54.2629 32.3004 54.3037 32.18 54.3ZM53.26 31.77C49.26 31.77 44.02 34.41 39.65 38.77C35.54 42.84 32.91 47.72 32.59 51.6C34.27 48.82 37.86 46.16 42.24 44.6C45.1837 43.4932 48.3345 43.046 51.47 43.29C54.35 39.22 55.68 34.94 55 31.99C54.4306 31.8487 53.8466 31.7749 53.26 31.77Z" fill="#75953F"/>
<path d="M32.52 54.99C32.4771 54.9989 32.4329 54.9989 32.39 54.99H32.18C32.0972 54.9674 32.022 54.923 31.9622 54.8614C31.9024 54.7999 31.8602 54.7234 31.84 54.64C31.8355 54.6035 31.8355 54.5665 31.84 54.53C31.8201 54.4259 31.8313 54.3182 31.8722 54.2204C31.9131 54.1226 31.9819 54.039 32.07 53.98C32.1516 53.9214 32.2495 53.8899 32.35 53.8899C32.4505 53.8899 32.5484 53.9214 32.63 53.98C32.6823 54.0288 32.7392 54.0723 32.8 54.11C32.8935 54.1795 32.9603 54.279 32.9894 54.3918C33.0185 54.5046 33.0081 54.6239 32.96 54.73C32.9177 54.8096 32.8542 54.876 32.7766 54.9219C32.6989 54.9678 32.6102 54.9913 32.52 54.99Z" fill="#75953F"/>
<path d="M31.28 18.4H9.75999C9.62739 18.4 9.50022 18.3473 9.40645 18.2536C9.31268 18.1598 9.25999 18.0326 9.25999 17.9C9.25999 17.7674 9.31268 17.6402 9.40645 17.5464C9.50022 17.4527 9.62739 17.4 9.75999 17.4H31.28C31.4126 17.4 31.5398 17.4527 31.6335 17.5464C31.7273 17.6402 31.78 17.7674 31.78 17.9C31.78 18.0326 31.7273 18.1598 31.6335 18.2536C31.5398 18.3473 31.4126 18.4 31.28 18.4Z" fill="#75953F"/>
<path d="M31.28 23.36H9.75999C9.62739 23.36 9.50022 23.3073 9.40645 23.2136C9.31268 23.1198 9.25999 22.9926 9.25999 22.86C9.25999 22.7274 9.31268 22.6002 9.40645 22.5065C9.50022 22.4127 9.62739 22.36 9.75999 22.36H31.28C31.4126 22.36 31.5398 22.4127 31.6335 22.5065C31.7273 22.6002 31.78 22.7274 31.78 22.86C31.78 22.9926 31.7273 23.1198 31.6335 23.2136C31.5398 23.3073 31.4126 23.36 31.28 23.36Z" fill="#75953F"/>
<path d="M31.28 28.32H9.75999C9.62739 28.32 9.50022 28.2673 9.40645 28.1736C9.31268 28.0798 9.25999 27.9526 9.25999 27.82C9.25999 27.6874 9.31268 27.5602 9.40645 27.4664C9.50022 27.3727 9.62739 27.32 9.75999 27.32H31.28C31.4126 27.32 31.5398 27.3727 31.6335 27.4664C31.7273 27.5602 31.78 27.6874 31.78 27.82C31.78 27.9526 31.7273 28.0798 31.6335 28.1736C31.5398 28.2673 31.4126 28.32 31.28 28.32Z" fill="#75953F"/>
<path d="M31.28 33.27H9.75999C9.62739 33.27 9.50022 33.2173 9.40645 33.1236C9.31268 33.0298 9.25999 32.9026 9.25999 32.77C9.25999 32.6374 9.31268 32.5102 9.40645 32.4165C9.50022 32.3227 9.62739 32.27 9.75999 32.27H31.28C31.4126 32.27 31.5398 32.3227 31.6335 32.4165C31.7273 32.5102 31.78 32.6374 31.78 32.77C31.78 32.9026 31.7273 33.0298 31.6335 33.1236C31.5398 33.2173 31.4126 33.27 31.28 33.27Z" fill="#75953F"/>
<path d="M33.72 46.55H5.84999C4.32754 46.5474 2.86805 45.9421 1.79057 44.8665C0.713097 43.7909 0.105275 42.3324 0.0999908 40.81C0.0999908 40.6774 0.152677 40.5502 0.246445 40.4565C0.340213 40.3627 0.467383 40.31 0.599991 40.31H37.1C37.1955 40.3089 37.2894 40.3352 37.3704 40.3857C37.4515 40.4362 37.5163 40.509 37.5574 40.5952C37.5984 40.6815 37.6139 40.7777 37.6019 40.8725C37.59 40.9672 37.5511 41.0566 37.49 41.13C36.1807 42.7036 35.066 44.4294 34.17 46.27C34.1288 46.3542 34.0647 46.425 33.9852 46.4745C33.9056 46.524 33.8137 46.5502 33.72 46.55ZM1.12999 41.31C1.25572 42.4743 1.80711 43.5511 2.67827 44.3336C3.54943 45.1162 4.67895 45.5494 5.84999 45.55H33.41C34.16 44.0554 35.0507 42.6357 36.07 41.31H1.12999Z" fill="#75953F"/>
<path d="M14.57 11.05C14.4395 11.0508 14.3139 11.0005 14.22 10.91L13.31 10.01C12.8819 9.5775 12.6418 8.99355 12.6418 8.38501C12.6418 7.77647 12.8819 7.19252 13.31 6.76001C13.4309 6.63927 13.5269 6.49586 13.5924 6.338C13.6578 6.18013 13.6915 6.01091 13.6915 5.84001C13.6915 5.66911 13.6578 5.49989 13.5924 5.34203C13.5269 5.18416 13.4309 5.04074 13.31 4.92C12.8819 4.48749 12.6418 3.90354 12.6418 3.295C12.6418 2.68646 12.8819 2.1025 13.31 1.67L14.22 0.770004C14.3128 0.677179 14.4387 0.625031 14.57 0.625031C14.7013 0.625031 14.8272 0.677179 14.92 0.770004C15.0128 0.86283 15.065 0.988735 15.065 1.12001C15.065 1.25129 15.0128 1.37718 14.92 1.47L14.02 2.38C13.7788 2.62345 13.6434 2.95229 13.6434 3.295C13.6434 3.63771 13.7788 3.96656 14.02 4.21001C14.2344 4.42286 14.4045 4.67602 14.5206 4.95491C14.6367 5.2338 14.6965 5.53291 14.6965 5.83501C14.6965 6.1371 14.6367 6.43621 14.5206 6.7151C14.4045 6.99399 14.2344 7.24715 14.02 7.46001C13.7805 7.70639 13.6466 8.03643 13.6466 8.38C13.6466 8.72358 13.7805 9.05362 14.02 9.3L14.92 10.2C14.9669 10.2465 15.004 10.3018 15.0294 10.3627C15.0548 10.4236 15.0679 10.489 15.0679 10.555C15.0679 10.621 15.0548 10.6864 15.0294 10.7473C15.004 10.8082 14.9669 10.8635 14.92 10.91C14.8249 10.9988 14.7001 11.0488 14.57 11.05Z" fill="#75953F"/>
<path d="M21.3 11.05C21.1668 11.0493 21.0386 10.9995 20.94 10.91L20.04 10.01C19.6119 9.5775 19.3718 8.99355 19.3718 8.38501C19.3718 7.77647 19.6119 7.19252 20.04 6.76001C20.1609 6.63927 20.2569 6.49586 20.3224 6.338C20.3878 6.18013 20.4215 6.01091 20.4215 5.84001C20.4215 5.66911 20.3878 5.49989 20.3224 5.34203C20.2569 5.18416 20.1609 5.04074 20.04 4.92C19.6119 4.48749 19.3718 3.90354 19.3718 3.295C19.3718 2.68646 19.6119 2.1025 20.04 1.67L20.94 0.770004C20.9865 0.72314 21.0418 0.685937 21.1027 0.660553C21.1636 0.635169 21.229 0.622101 21.295 0.622101C21.361 0.622101 21.4264 0.635169 21.4873 0.660553C21.5482 0.685937 21.6035 0.72314 21.65 0.770004C21.6978 0.814894 21.7359 0.869108 21.762 0.929306C21.7881 0.989504 21.8015 1.05441 21.8015 1.12001C21.8015 1.18561 21.7881 1.2505 21.762 1.3107C21.7359 1.3709 21.6978 1.42511 21.65 1.47L20.75 2.38C20.6294 2.4999 20.5336 2.64245 20.4683 2.79948C20.403 2.95652 20.3693 3.12492 20.3693 3.295C20.3693 3.46508 20.403 3.63348 20.4683 3.79051C20.5336 3.94754 20.6294 4.09012 20.75 4.21001C20.9644 4.42286 21.1345 4.67602 21.2506 4.95491C21.3667 5.2338 21.4265 5.53291 21.4265 5.83501C21.4265 6.1371 21.3667 6.43621 21.2506 6.7151C21.1345 6.99399 20.9644 7.24715 20.75 7.46001C20.6291 7.58075 20.5331 7.72416 20.4676 7.88202C20.4022 8.03988 20.3685 8.20911 20.3685 8.38C20.3685 8.5509 20.4022 8.72013 20.4676 8.87799C20.5331 9.03585 20.6291 9.17926 20.75 9.3L21.65 10.2C21.6969 10.2465 21.7341 10.3018 21.7594 10.3627C21.7848 10.4236 21.7979 10.489 21.7979 10.555C21.7979 10.621 21.7848 10.6864 21.7594 10.7473C21.7341 10.8082 21.6969 10.8635 21.65 10.91C21.5549 10.9988 21.4301 11.0488 21.3 11.05Z" fill="#75953F"/>
<path d="M28.01 11.05C27.8803 11.0469 27.756 10.9972 27.66 10.91L26.76 10.01C26.5456 9.79716 26.3755 9.54398 26.2594 9.26509C26.1433 8.9862 26.0835 8.6871 26.0835 8.38501C26.0835 8.08292 26.1433 7.7838 26.2594 7.50491C26.3755 7.22602 26.5456 6.97286 26.76 6.76001C26.8809 6.63927 26.9769 6.49586 27.0424 6.338C27.1078 6.18013 27.1415 6.01091 27.1415 5.84001C27.1415 5.66911 27.1078 5.49989 27.0424 5.34203C26.9769 5.18416 26.8809 5.04074 26.76 4.92C26.5456 4.70714 26.3755 4.45399 26.2594 4.17509C26.1433 3.8962 26.0835 3.59709 26.0835 3.295C26.0835 2.99291 26.1433 2.69381 26.2594 2.41492C26.3755 2.13603 26.5456 1.88285 26.76 1.67L27.66 0.770004C27.7065 0.72314 27.7618 0.685937 27.8227 0.660553C27.8836 0.635169 27.949 0.622101 28.015 0.622101C28.081 0.622101 28.1463 0.635169 28.2073 0.660553C28.2682 0.685937 28.3235 0.72314 28.37 0.770004C28.4616 0.863469 28.5129 0.989134 28.5129 1.12001C28.5129 1.25089 28.4616 1.37654 28.37 1.47L27.47 2.38C27.3494 2.4999 27.2536 2.64245 27.1883 2.79948C27.1229 2.95652 27.0893 3.12492 27.0893 3.295C27.0893 3.46508 27.1229 3.63348 27.1883 3.79051C27.2536 3.94754 27.3494 4.09012 27.47 4.21001C27.8981 4.64251 28.1382 5.22647 28.1382 5.83501C28.1382 6.44354 27.8981 7.0275 27.47 7.46001C27.3491 7.58075 27.2531 7.72416 27.1876 7.88202C27.1222 8.03988 27.0885 8.20911 27.0885 8.38C27.0885 8.5509 27.1222 8.72013 27.1876 8.87799C27.2531 9.03585 27.3491 9.17926 27.47 9.3L28.37 10.2C28.4622 10.2952 28.5138 10.4225 28.5138 10.555C28.5138 10.6875 28.4622 10.8149 28.37 10.91C28.2714 10.9995 28.1432 11.0493 28.01 11.05Z" fill="#75953F"/>
<path d="M37.14 48.21C37.0461 48.2073 36.9548 48.1787 36.8762 48.1274C36.7975 48.0761 36.7346 48.0041 36.6942 47.9193C36.6539 47.8345 36.6378 47.7402 36.6476 47.6468C36.6574 47.5534 36.6929 47.4645 36.75 47.39C46.16 35.77 55.1 31.16 55.19 31.11C55.2554 31.0782 55.3272 31.0616 55.4 31.0616C55.4728 31.0616 55.5446 31.0782 55.61 31.11C55.6778 31.1405 55.7385 31.1847 55.7884 31.2397C55.8383 31.2948 55.8763 31.3596 55.9 31.43C56.84 34.78 55.42 39.51 52.11 44.09C52.0566 44.1628 51.9852 44.2204 51.9028 44.2572C51.8204 44.2941 51.7298 44.3088 51.64 44.3C48.5664 44.0079 45.4668 44.4253 42.58 45.52C40.7549 46.1645 39.0206 47.0418 37.42 48.13C37.3375 48.1856 37.2394 48.2137 37.14 48.21ZM55.07 32.32C49.1589 35.9417 43.8681 40.4896 39.4 45.79C40.3195 45.3227 41.2681 44.9152 42.24 44.57C45.1837 43.4632 48.3345 43.016 51.47 43.26C54.24 39.35 55.58 35.25 55.07 32.32Z" fill="#75953F"/>
<path d="M39.65 46.23C35.43 48.36 32.55 51.4 32.1 54.17C34.47 56.25 39.46 56.65 44.75 55.02C42.1147 52.7429 40.319 49.6479 39.65 46.23Z" fill="#ECF1C5"/>
<path d="M38.45 56.53C36.0569 56.674 33.6902 55.9654 31.77 54.53C31.7046 54.4766 31.6544 54.4068 31.6246 54.3278C31.5947 54.2488 31.5862 54.1633 31.6 54.08C32.19 50.45 36.47 46.63 42.24 44.56C48.01 42.49 53.74 42.72 56.5 45.14C56.5633 45.1973 56.6118 45.2691 56.6414 45.3492C56.671 45.4293 56.6808 45.5153 56.67 45.6C56.07 49.22 51.8 53.04 46.03 55.11C43.6019 56.009 41.0388 56.4891 38.45 56.53ZM32.64 53.97C35.19 55.97 40.49 56.05 45.69 54.18C50.89 52.31 54.92 48.87 55.63 45.72C53.08 43.72 47.78 43.64 42.58 45.51C37.38 47.38 33.35 50.82 32.64 53.97Z" fill="#75953F"/>
<path d="M38.49 56.51C36.2296 56.63 33.9893 56.0314 32.09 54.8C32.0255 54.7494 31.9744 54.6837 31.9413 54.6087C31.9082 54.5338 31.894 54.4518 31.9 54.37C31.9016 54.2894 31.9236 54.2105 31.9638 54.1406C32.004 54.0706 32.0611 54.012 32.13 53.97C42.91 47.28 55.96 45.06 56.13 45.03C56.2076 45.0195 56.2866 45.0266 56.361 45.0508C56.4355 45.0751 56.5035 45.1158 56.56 45.17C56.6174 45.2267 56.6609 45.296 56.6869 45.3723C56.7129 45.4487 56.7209 45.5301 56.71 45.61C56.11 49.23 51.84 53.05 46.07 55.12C43.641 56.0118 41.0774 56.4819 38.49 56.51ZM33.33 54.41C36.09 55.96 40.91 55.9 45.69 54.18C50.69 52.4 54.54 49.18 55.51 46.18C52.67 46.72 42.32 49.04 33.33 54.41Z" fill="#75953F"/>
<path d="M50.34 28.92C49.7382 28.8709 49.1773 28.5958 48.77 28.15C48.0731 27.508 47.1758 27.1265 46.23 27.07C46.1404 27.0638 46.0541 27.0337 45.9802 26.9826C45.9063 26.9316 45.8475 26.8616 45.81 26.78L46.21 26.45L45.76 26.66L45.49 26.12L45.38 25.92C45.3352 25.8295 45.3189 25.7276 45.3332 25.6276C45.3475 25.5277 45.3917 25.4344 45.46 25.36C46.0986 24.636 46.4538 23.7054 46.46 22.74C46.3592 22.3477 46.4026 21.9322 46.5825 21.5692C46.7623 21.2062 47.0665 20.9199 47.4397 20.7624C47.8128 20.6049 48.2302 20.5867 48.6157 20.711C49.0012 20.8354 49.3292 21.0941 49.54 21.44C50.2544 22.1447 50.816 22.9888 51.19 23.92C51.6084 24.8372 51.8298 25.8319 51.84 26.84C51.8915 27.2351 51.8238 27.6365 51.6456 27.9928C51.4675 28.3491 51.1869 28.6442 50.84 28.84C50.6801 28.8989 50.5103 28.9261 50.34 28.92ZM46.6 26.13C47.666 26.2566 48.6641 26.7188 49.45 27.45C49.86 27.83 50.25 28.01 50.45 27.92C50.65 27.83 50.81 27.42 50.82 26.85C50.8008 25.9835 50.607 25.1298 50.25 24.34C49.9286 23.5392 49.449 22.8113 48.84 22.2C48.42 21.81 48.03 21.63 47.84 21.73C47.65 21.83 47.48 22.23 47.47 22.79C47.47 23.8719 47.1191 24.9245 46.47 25.79L46.6 26.13Z" fill="#75953F"/>
<path d="M38.54 39.67C38.4659 39.6663 38.3935 39.6465 38.3279 39.612C38.2623 39.5774 38.205 39.529 38.16 39.47C36.8139 37.6619 35.6546 35.722 34.7 33.68C34.0001 32.206 33.402 30.6858 32.91 29.13C32.8985 29.0807 32.8985 29.0294 32.91 28.98V24.98C32.9137 21.7562 33.4128 18.5521 34.39 15.48C34.4157 15.4016 34.4601 15.3306 34.5193 15.2731C34.5786 15.2156 34.6509 15.1734 34.73 15.15C38.18 14.15 43.22 18.8 46.73 26.15C47.6323 28.0621 48.3652 30.0498 48.92 32.09C48.9489 32.2093 48.9346 32.335 48.8797 32.4449C48.8248 32.5547 48.7328 32.6415 48.62 32.69C45.2782 34.0677 42.2505 36.1088 39.72 38.69C39.46 38.94 39.22 39.2 38.98 39.45C38.9305 39.5202 38.8644 39.5769 38.7877 39.6153C38.7109 39.6537 38.6258 39.6725 38.54 39.67ZM33.88 28.93C34.3526 30.4067 34.9239 31.8499 35.59 33.25C36.4282 35.0528 37.4325 36.7736 38.59 38.39L38.94 38.04C41.4636 35.4877 44.4591 33.4499 47.76 32.04C47.2413 30.208 46.5724 28.422 45.76 26.7C42.69 20.19 38.16 15.7 35.23 16.16C34.3408 19.0535 33.8858 22.063 33.88 25.09V28.93Z" fill="#75953F"/>
<path d="M38.54 39.67C38.4676 39.6649 38.3972 39.6444 38.3334 39.6099C38.2696 39.5754 38.2139 39.5277 38.17 39.47C36.8196 37.6648 35.66 35.7245 34.71 33.68C34.007 32.2061 33.4056 30.6859 32.91 29.13C32.9005 29.0805 32.9005 29.0296 32.91 28.98V24.98C32.913 22.5342 33.2051 20.0973 33.78 17.72C33.8088 17.596 33.8838 17.4877 33.9897 17.4171C34.0956 17.3464 34.2245 17.3189 34.35 17.34C37.64 17.9 41.78 22.34 44.64 28.42C45.3712 29.9597 45.9895 31.5506 46.49 33.18C46.5242 33.2895 46.5189 33.4075 46.4751 33.5135C46.4312 33.6195 46.3516 33.7067 46.25 33.76C43.8356 35.0768 41.623 36.7337 39.68 38.68C39.42 38.93 39.18 39.19 38.93 39.45C38.8878 39.5156 38.8302 39.5699 38.7622 39.6083C38.6943 39.6466 38.618 39.6678 38.54 39.67ZM33.88 28.93C34.3578 30.4048 34.929 31.8477 35.59 33.25C36.428 35.0561 37.4323 36.7802 38.59 38.4L38.94 38.04C40.8561 36.1269 43.0225 34.4819 45.38 33.15C44.9112 31.7069 44.3534 30.2942 43.71 28.92C41.12 23.42 37.52 19.33 34.61 18.5C34.1309 20.6506 33.8861 22.8467 33.88 25.05V28.93Z" fill="#75953F"/>
<path d="M46.39 54.75C46.2815 54.7523 46.1754 54.717 46.09 54.65C44.0168 53.3266 41.8198 52.208 39.53 51.31C39.4077 51.2571 39.3109 51.1584 39.2605 51.035C39.21 50.9117 39.2098 50.7735 39.26 50.65C39.2841 50.5889 39.3202 50.5333 39.3662 50.4865C39.4122 50.4397 39.4672 50.4025 39.5278 50.3774C39.5885 50.3522 39.6535 50.3394 39.7192 50.3399C39.7848 50.3403 39.8497 50.354 39.91 50.38C42.279 51.3101 44.55 52.4724 46.69 53.85C46.7739 53.913 46.836 54.0008 46.8673 54.1009C46.8985 54.2011 46.8975 54.3086 46.8643 54.4081C46.8312 54.5077 46.7675 54.5943 46.6823 54.6556C46.5972 54.717 46.4949 54.75 46.39 54.75Z" fill="#75953F"/>
<path d="M52.08 51.13C51.9552 51.1265 51.8353 51.0807 51.74 51C50.2245 49.835 48.4742 49.0127 46.61 48.59C46.4774 48.5741 46.3565 48.5062 46.274 48.4011C46.1915 48.2961 46.1541 48.1626 46.17 48.03C46.1859 47.8974 46.2539 47.7765 46.3589 47.694C46.4639 47.6115 46.5974 47.5741 46.73 47.59C48.8023 48.0438 50.7466 48.9562 52.42 50.26C52.4669 50.3065 52.5041 50.3618 52.5294 50.4227C52.5548 50.4836 52.5679 50.549 52.5679 50.615C52.5679 50.681 52.5548 50.7464 52.5294 50.8073C52.5041 50.8682 52.4669 50.9235 52.42 50.97C52.3306 51.0639 52.2093 51.1209 52.08 51.13Z" fill="#75953F"/>
<path d="M42.21 42.77C42.1443 42.7759 42.0782 42.7688 42.0152 42.7492C41.9523 42.7295 41.8939 42.6976 41.8433 42.6554C41.7927 42.6131 41.7509 42.5613 41.7203 42.5029C41.6897 42.4445 41.6709 42.3807 41.665 42.315C41.6591 42.2493 41.6662 42.1832 41.6858 42.1202C41.7055 42.0573 41.7374 41.9989 41.7796 41.9483C41.8219 41.8977 41.8737 41.8559 41.9321 41.8253C41.9905 41.7947 42.0543 41.7759 42.12 41.77C42.43 41.72 49.56 40.47 53.21 40.77C53.3418 40.7827 53.4634 40.8462 53.5493 40.9469C53.6351 41.0477 53.6784 41.1779 53.67 41.31C53.6505 41.4407 53.5837 41.5597 53.4824 41.6445C53.381 41.7292 53.2521 41.7739 53.12 41.77C49.6 41.46 42.37 42.71 42.3 42.77H42.21Z" fill="#75953F"/>
<path d="M48.11 37.13C47.9878 37.1288 47.87 37.0837 47.7782 37.0029C47.6865 36.9221 47.6268 36.8111 47.61 36.69C47.6031 36.6243 47.6093 36.5578 47.6282 36.4945C47.6472 36.4312 47.6784 36.3723 47.7203 36.3212C47.7621 36.27 47.8137 36.2277 47.872 36.1966C47.9303 36.1655 47.9942 36.1462 48.06 36.14C50.4339 35.8776 52.8219 35.764 55.21 35.8C55.3418 35.8102 55.4644 35.8712 55.552 35.9701C55.6397 36.069 55.6856 36.198 55.68 36.33C55.6762 36.3966 55.6591 36.4618 55.6298 36.5217C55.6004 36.5816 55.5594 36.635 55.5091 36.6788C55.4587 36.7226 55.4002 36.7559 55.3368 36.7767C55.2734 36.7975 55.2065 36.8054 55.14 36.8C52.8021 36.7634 50.4641 36.8736 48.14 37.13H48.11Z" fill="#75953F"/>
</svg>
