<svg width="16" height="17" viewBox="0 0 16 17" fill="none" xmlns="http://www.w3.org/2000/svg">
<path d="M13 0.773438C13.8264 0.773438 14.533 1.06684 15.1198 1.65365C15.7066 2.24045 16 2.94705 16 3.77344V13.7734C16 14.5998 15.7066 15.3064 15.1198 15.8932C14.533 16.48 13.8264 16.7734 13 16.7734H11.0417V10.5755H13.1146L13.4271 8.15885H11.0417V6.61719C11.0417 6.2283 11.1233 5.93663 11.2865 5.74219C11.4497 5.54774 11.7674 5.45052 12.2396 5.45052L13.5104 5.4401V3.28385C13.0729 3.22135 12.4549 3.1901 11.6563 3.1901C10.7118 3.1901 9.9566 3.46788 9.39063 4.02344C8.82465 4.57899 8.54167 5.36372 8.54167 6.3776V8.15885H6.45833V10.5755H8.54167V16.7734H3C2.17361 16.7734 1.46701 16.48 0.880208 15.8932C0.293403 15.3064 0 14.5998 0 13.7734V3.77344C0 2.94705 0.293403 2.24045 0.880208 1.65365C1.46701 1.06684 2.17361 0.773438 3 0.773438H13Z" fill="#094BCA"/>
</svg>
