<svg width="22" height="15" viewBox="0 0 22 15" fill="none" xmlns="http://www.w3.org/2000/svg">
<path d="M22 6.40039H20V4.40039H18V6.40039H16V8.40039H18V10.4004H20V8.40039H22M7 6.40039V8.80039H11C10.8 9.80039 9.8 11.8004 7 11.8004C4.6 11.8004 2.7 9.80039 2.7 7.40039C2.7 5.00039 4.6 3.00039 7 3.00039C8.4 3.00039 9.3 3.60039 9.8 4.10039L11.7 2.30039C10.5 1.10039 8.9 0.400391 7 0.400391C3.1 0.400391 0 3.50039 0 7.40039C0 11.3004 3.1 14.4004 7 14.4004C11 14.4004 13.7 11.6004 13.7 7.60039C13.7 7.10039 13.7 6.80039 13.6 6.40039H7Z" fill="#094BCA"/>
</svg>
