<svg width="16" height="14" viewBox="0 0 16 14" fill="none" xmlns="http://www.w3.org/2000/svg">
<path fill-rule="evenodd" clip-rule="evenodd" d="M7.55122 0.236972C7.80027 -0.00802721 8.1998 -0.00802721 8.44885 0.236972L15.6489 7.31966C15.9008 7.56753 15.9041 7.97273 15.6563 8.22471C15.4084 8.4767 15.0032 8.48003 14.7513 8.23215L13.8667 7.36205V13.3332C13.8667 13.6277 13.628 13.8666 13.3333 13.8666H2.6667C2.37215 13.8666 2.13336 13.6277 2.13336 13.3332V7.36205L1.24885 8.23215C0.99687 8.48003 0.591658 8.4767 0.343784 8.22471C0.0959099 7.97273 0.0992383 7.56753 0.351219 7.31966L7.55122 0.236972ZM8.00003 1.59097L12.8 6.31277V12.7999H10.6667V9.06656C10.6667 8.77201 10.4279 8.53322 10.1334 8.53322H6.93336C6.63881 8.53322 6.40003 8.77201 6.40003 9.06656V12.7999H3.20003V6.31277L8.00003 1.59097ZM7.4667 12.7999H9.60003V9.59989H7.4667V12.7999Z" fill="#171A1F"/>
</svg>
