<svg width="122" height="44" viewBox="0 0 122 44" fill="none" xmlns="http://www.w3.org/2000/svg">
<path d="M56.1597 33.8966L58.3834 27.2519H68.515L70.7519 33.8966H75.9624L66.4624 6.94922H60.4361L50.9492 33.8966H56.1597ZM59.6992 23.3308L63.344 12.4755H63.5545L67.1992 23.3308H59.6992Z" fill="white"/>
<path d="M79.3012 41.4755H84.0644V30.7124H84.2617C85.0117 32.1861 86.5775 34.2519 90.0512 34.2519C94.8144 34.2519 98.3801 30.4755 98.3801 23.8176C98.3801 17.0808 94.7091 13.4229 90.038 13.4229C86.4723 13.4229 84.9854 15.5676 84.2617 17.0282H83.9854V13.6861H79.3012V41.4755ZM83.9723 23.7913C83.9723 19.8703 85.6565 17.3308 88.7223 17.3308C91.8933 17.3308 93.5249 20.0282 93.5249 23.7913C93.5249 27.5808 91.867 30.344 88.7223 30.344C85.6828 30.344 83.9723 27.7124 83.9723 23.7913Z" fill="white"/>
<path d="M102.459 41.4755H107.222V30.7124H107.42C108.17 32.1861 109.735 34.2519 113.209 34.2519C117.972 34.2519 121.538 30.4755 121.538 23.8176C121.538 17.0808 117.867 13.4229 113.196 13.4229C109.63 13.4229 108.143 15.5676 107.42 17.0282H107.143V13.6861H102.459V41.4755ZM107.13 23.7913C107.13 19.8703 108.814 17.3308 111.88 17.3308C115.051 17.3308 116.683 20.0282 116.683 23.7913C116.683 27.5808 115.025 30.344 111.88 30.344C108.841 30.344 107.13 27.7124 107.13 23.7913Z" fill="white"/>
<path fill-rule="evenodd" clip-rule="evenodd" d="M12.0604 39.98C7.49012 41.5035 3.30857 36.8316 5.32742 32.4574L17.0063 7.15328C18.9726 2.89316 25.0276 2.89316 26.9938 7.15328L38.6725 32.4574C40.6914 36.8316 36.5099 41.5035 31.9396 39.98L23.7393 37.2466C22.6103 36.8703 21.3899 36.8703 20.2609 37.2466L12.0604 39.98Z" fill="white"/>
<path d="M23.8333 37.2773L23.7393 37.246C22.6103 36.8696 21.3899 36.8696 20.2609 37.246L20.1667 37.2773L20.1667 18.3329C20.1667 17.3203 20.9874 16.4995 22 16.4995C23.0125 16.4995 23.8333 17.3203 23.8333 18.3329L23.8333 37.2773Z" fill="#98AAE9"/>
</svg>
