<svg width="48" height="48" viewBox="0 0 48 48" fill="none" xmlns="http://www.w3.org/2000/svg">
<g filter="url(#filter0_d_1_352)">
<rect x="4" width="40" height="40" rx="10" fill="white"/>
<g clip-path="url(#clip0_1_352)">
<path fill-rule="evenodd" clip-rule="evenodd" d="M33.5302 14.4696C33.8231 14.7625 33.8231 15.2374 33.5302 15.5303L25.5302 23.5303C25.2373 23.8232 24.7624 23.8232 24.4695 23.5303L20.9999 20.0606L15.5302 25.5303C15.2373 25.8232 14.7624 25.8232 14.4695 25.5303C14.1767 25.2374 14.1767 24.7625 14.4695 24.4696L20.4695 18.4696C20.7624 18.1767 21.2373 18.1767 21.5302 18.4696L24.9999 21.9393L32.4695 14.4696C32.7624 14.1767 33.2373 14.1767 33.5302 14.4696Z" fill="#094BCA"/>
<path fill-rule="evenodd" clip-rule="evenodd" d="M25.2499 15C25.2499 14.5858 25.5857 14.25 25.9999 14.25H32.9999C33.4141 14.25 33.7499 14.5858 33.7499 15V22C33.7499 22.4142 33.4141 22.75 32.9999 22.75C32.5857 22.75 32.2499 22.4142 32.2499 22V15.75H25.9999C25.5857 15.75 25.2499 15.4142 25.2499 15Z" fill="#094BCA"/>
</g>
</g>
<defs>
<filter id="filter0_d_1_352" x="0" y="0" width="48" height="48" filterUnits="userSpaceOnUse" color-interpolation-filters="sRGB">
<feFlood flood-opacity="0" result="BackgroundImageFix"/>
<feColorMatrix in="SourceAlpha" type="matrix" values="0 0 0 0 0 0 0 0 0 0 0 0 0 0 0 0 0 0 127 0" result="hardAlpha"/>
<feOffset dy="4"/>
<feGaussianBlur stdDeviation="2"/>
<feComposite in2="hardAlpha" operator="out"/>
<feColorMatrix type="matrix" values="0 0 0 0 0 0 0 0 0 0 0 0 0 0 0 0 0 0 0.25 0"/>
<feBlend mode="normal" in2="BackgroundImageFix" result="effect1_dropShadow_1_352"/>
<feBlend mode="normal" in="SourceGraphic" in2="effect1_dropShadow_1_352" result="shape"/>
</filter>
<clipPath id="clip0_1_352">
<rect width="24" height="24" fill="white" transform="translate(11.9999 7.99997)"/>
</clipPath>
</defs>
</svg>
