<svg width="48" height="48" viewBox="0 0 48 48" fill="none" xmlns="http://www.w3.org/2000/svg">
<g filter="url(#filter0_d_1_358)">
<rect x="4" width="40" height="40" rx="10" fill="white"/>
</g>
<g clip-path="url(#clip0_1_358)">
<path fill-rule="evenodd" clip-rule="evenodd" d="M19.25 17C19.25 16.5858 19.5858 16.25 20 16.25H28C28.4142 16.25 28.75 16.5858 28.75 17C28.75 17.4142 28.4142 17.75 28 17.75H20C19.5858 17.75 19.25 17.4142 19.25 17Z" fill="#094BCA"/>
<path fill-rule="evenodd" clip-rule="evenodd" d="M19.25 21C19.25 20.5858 19.5858 20.25 20 20.25H26C26.4142 20.25 26.75 20.5858 26.75 21C26.75 21.4142 26.4142 21.75 26 21.75H20C19.5858 21.75 19.25 21.4142 19.25 21Z" fill="#094BCA"/>
<path fill-rule="evenodd" clip-rule="evenodd" d="M18 12.75C17.4033 12.75 16.831 12.9871 16.409 13.409C15.9871 13.831 15.75 14.4033 15.75 15V23C15.75 23.5967 15.9871 24.169 16.409 24.591C16.831 25.0129 17.4033 25.25 18 25.25H21C21.1989 25.25 21.3897 25.329 21.5303 25.4697L24.03 27.9694C24.3089 27.8358 24.6533 27.8846 24.8843 28.1157C25.1772 28.4086 25.1772 28.8834 24.8843 29.1763L24.5303 29.5303C24.2374 29.8232 23.7626 29.8232 23.4697 29.5303L20.6893 26.75H18C17.0054 26.75 16.0516 26.3549 15.3483 25.6517C14.6451 24.9484 14.25 23.9946 14.25 23V15C14.25 14.0054 14.6451 13.0516 15.3483 12.3483C16.0516 11.6451 17.0054 11.25 18 11.25H30C30.9946 11.25 31.9484 11.6451 32.6517 12.3483C33.3549 13.0516 33.75 14.0054 33.75 15V20.5C33.75 20.9142 33.4142 21.25 33 21.25C32.5858 21.25 32.25 20.9142 32.25 20.5V15C32.25 14.4033 32.0129 13.831 31.591 13.409C31.169 12.9871 30.5967 12.75 30 12.75H18Z" fill="#094BCA"/>
<path fill-rule="evenodd" clip-rule="evenodd" d="M31 23.25C31.4142 23.25 31.75 23.5858 31.75 24V30C31.75 30.4142 31.4142 30.75 31 30.75C30.5858 30.75 30.25 30.4142 30.25 30V24C30.25 23.5858 30.5858 23.25 31 23.25Z" fill="#094BCA"/>
<path fill-rule="evenodd" clip-rule="evenodd" d="M30.4697 23.4697C30.7626 23.1768 31.2374 23.1768 31.5303 23.4697L34.5303 26.4697C34.8232 26.7626 34.8232 27.2374 34.5303 27.5303C34.2374 27.8232 33.7626 27.8232 33.4697 27.5303L31 25.0607L28.5303 27.5303C28.2374 27.8232 27.7626 27.8232 27.4697 27.5303C27.1768 27.2374 27.1768 26.7626 27.4697 26.4697L30.4697 23.4697Z" fill="#094BCA"/>
</g>
<defs>
<filter id="filter0_d_1_358" x="0" y="0" width="48" height="48" filterUnits="userSpaceOnUse" color-interpolation-filters="sRGB">
<feFlood flood-opacity="0" result="BackgroundImageFix"/>
<feColorMatrix in="SourceAlpha" type="matrix" values="0 0 0 0 0 0 0 0 0 0 0 0 0 0 0 0 0 0 127 0" result="hardAlpha"/>
<feOffset dy="4"/>
<feGaussianBlur stdDeviation="2"/>
<feComposite in2="hardAlpha" operator="out"/>
<feColorMatrix type="matrix" values="0 0 0 0 0 0 0 0 0 0 0 0 0 0 0 0 0 0 0.25 0"/>
<feBlend mode="normal" in2="BackgroundImageFix" result="effect1_dropShadow_1_358"/>
<feBlend mode="normal" in="SourceGraphic" in2="effect1_dropShadow_1_358" result="shape"/>
</filter>
<clipPath id="clip0_1_358">
<rect width="24" height="24" fill="white" transform="translate(12 8)"/>
</clipPath>
</defs>
</svg>
