<svg width="48" height="48" viewBox="0 0 48 48" fill="none" xmlns="http://www.w3.org/2000/svg">
<g filter="url(#filter0_d_1_367)">
<rect x="4" width="40" height="40" rx="10" fill="white"/>
<g clip-path="url(#clip0_1_367)">
<path fill-rule="evenodd" clip-rule="evenodd" d="M17.25 17C17.25 16.5858 17.5858 16.25 18 16.25H24C24.4142 16.25 24.75 16.5858 24.75 17C24.75 17.4142 24.4142 17.75 24 17.75H18C17.5858 17.75 17.25 17.4142 17.25 17Z" fill="#094BCA"/>
<path fill-rule="evenodd" clip-rule="evenodd" d="M15.25 13C15.25 12.5858 15.5858 12.25 16 12.25H20C20.4142 12.25 20.75 12.5858 20.75 13C20.75 13.4142 20.4142 13.75 20 13.75H16C15.5858 13.75 15.25 13.4142 15.25 13Z" fill="#094BCA"/>
<path fill-rule="evenodd" clip-rule="evenodd" d="M18 12.25C18.4142 12.25 18.75 12.5858 18.75 13V24C18.75 24.0663 18.7763 24.1299 18.8232 24.1768C18.8701 24.2237 18.9337 24.25 19 24.25H24C24.4142 24.25 24.75 24.5858 24.75 25C24.75 25.4142 24.4142 25.75 24 25.75H19C18.5359 25.75 18.0908 25.5656 17.7626 25.2374C17.4344 24.9092 17.25 24.4641 17.25 24V13C17.25 12.5858 17.5858 12.25 18 12.25Z" fill="#094BCA"/>
<path fill-rule="evenodd" clip-rule="evenodd" d="M25 15.75C24.9337 15.75 24.8701 15.7763 24.8232 15.8232C24.7763 15.8701 24.75 15.9337 24.75 16V18C24.75 18.0663 24.7763 18.1299 24.8232 18.1768C24.8701 18.2237 24.9337 18.25 25 18.25H31C31.0663 18.25 31.1299 18.2237 31.1768 18.1768C31.2237 18.1299 31.25 18.0663 31.25 18V16C31.25 15.9337 31.2237 15.8701 31.1768 15.8232C31.1299 15.7763 31.0663 15.75 31 15.75H25ZM23.7626 14.7626C24.0908 14.4344 24.5359 14.25 25 14.25H31C31.4641 14.25 31.9092 14.4344 32.2374 14.7626C32.5656 15.0908 32.75 15.5359 32.75 16V18C32.75 18.4641 32.5656 18.9092 32.2374 19.2374C31.9092 19.5656 31.4641 19.75 31 19.75H25C24.5359 19.75 24.0908 19.5656 23.7626 19.2374C23.4344 18.9092 23.25 18.4641 23.25 18V16C23.25 15.5359 23.4344 15.0908 23.7626 14.7626Z" fill="#094BCA"/>
<path fill-rule="evenodd" clip-rule="evenodd" d="M25 23.75C24.9337 23.75 24.8701 23.7763 24.8232 23.8232C24.7763 23.8701 24.75 23.9337 24.75 24V26C24.75 26.0663 24.7763 26.1299 24.8232 26.1768C24.8701 26.2237 24.9337 26.25 25 26.25H31C31.0663 26.25 31.1299 26.2237 31.1768 26.1768C31.2237 26.1299 31.25 26.0663 31.25 26V24C31.25 23.9337 31.2237 23.8701 31.1768 23.8232C31.1299 23.7763 31.0663 23.75 31 23.75H25ZM23.7626 22.7626C24.0908 22.4344 24.5359 22.25 25 22.25H31C31.4641 22.25 31.9092 22.4344 32.2374 22.7626C32.5656 23.0908 32.75 23.5359 32.75 24V26C32.75 26.4641 32.5656 26.9092 32.2374 27.2374C31.9092 27.5656 31.4641 27.75 31 27.75H25C24.5359 27.75 24.0908 27.5656 23.7626 27.2374C23.4344 26.9092 23.25 26.4641 23.25 26V24C23.25 23.5359 23.4344 23.0908 23.7626 22.7626Z" fill="#094BCA"/>
</g>
</g>
<defs>
<filter id="filter0_d_1_367" x="0" y="0" width="48" height="48" filterUnits="userSpaceOnUse" color-interpolation-filters="sRGB">
<feFlood flood-opacity="0" result="BackgroundImageFix"/>
<feColorMatrix in="SourceAlpha" type="matrix" values="0 0 0 0 0 0 0 0 0 0 0 0 0 0 0 0 0 0 127 0" result="hardAlpha"/>
<feOffset dy="4"/>
<feGaussianBlur stdDeviation="2"/>
<feComposite in2="hardAlpha" operator="out"/>
<feColorMatrix type="matrix" values="0 0 0 0 0 0 0 0 0 0 0 0 0 0 0 0 0 0 0.25 0"/>
<feBlend mode="normal" in2="BackgroundImageFix" result="effect1_dropShadow_1_367"/>
<feBlend mode="normal" in="SourceGraphic" in2="effect1_dropShadow_1_367" result="shape"/>
</filter>
<clipPath id="clip0_1_367">
<rect width="24" height="24" fill="white" transform="translate(12 8)"/>
</clipPath>
</defs>
</svg>
