<svg width="20" height="19" viewBox="0 0 20 19" fill="none" xmlns="http://www.w3.org/2000/svg">
<path fill-rule="evenodd" clip-rule="evenodd" d="M3 5.75C2.66848 5.75 2.35054 5.8817 2.11612 6.11612C1.8817 6.35054 1.75 6.66848 1.75 7V16C1.75 16.3315 1.8817 16.6495 2.11612 16.8839C2.35054 17.1183 2.66848 17.25 3 17.25H17C17.3315 17.25 17.6495 17.1183 17.8839 16.8839C18.1183 16.6495 18.25 16.3315 18.25 16V7C18.25 6.66848 18.1183 6.35054 17.8839 6.11612C17.6495 5.8817 17.3315 5.75 17 5.75H3ZM1.05546 5.05546C1.57118 4.53973 2.27065 4.25 3 4.25H17C17.7293 4.25 18.4288 4.53973 18.9445 5.05546C19.4603 5.57118 19.75 6.27065 19.75 7V16C19.75 16.7293 19.4603 17.4288 18.9445 17.9445C18.4288 18.4603 17.7293 18.75 17 18.75H3C2.27065 18.75 1.57118 18.4603 1.05546 17.9445C0.539731 17.4288 0.25 16.7293 0.25 16V7C0.25 6.27065 0.539731 5.57118 1.05546 5.05546Z" fill="#ECB22D"/>
<path fill-rule="evenodd" clip-rule="evenodd" d="M8 1.75C7.66848 1.75 7.35054 1.8817 7.11612 2.11612C6.8817 2.35054 6.75 2.66848 6.75 3V5C6.75 5.41421 6.41421 5.75 6 5.75C5.58579 5.75 5.25 5.41421 5.25 5V3C5.25 2.27065 5.53973 1.57118 6.05546 1.05546C6.57118 0.539731 7.27065 0.25 8 0.25H12C12.7293 0.25 13.4288 0.539731 13.9445 1.05546C14.4603 1.57118 14.75 2.27065 14.75 3V5C14.75 5.41421 14.4142 5.75 14 5.75C13.5858 5.75 13.25 5.41421 13.25 5V3C13.25 2.66848 13.1183 2.35054 12.8839 2.11612C12.6495 1.8817 12.3315 1.75 12 1.75H8Z" fill="#ECB22D"/>
<path fill-rule="evenodd" clip-rule="evenodd" d="M10 9.25C10.4142 9.25 10.75 9.58579 10.75 10V10.01C10.75 10.4242 10.4142 10.76 10 10.76C9.58579 10.76 9.25 10.4242 9.25 10.01V10C9.25 9.58579 9.58579 9.25 10 9.25Z" fill="#ECB22D"/>
<path fill-rule="evenodd" clip-rule="evenodd" d="M0.330208 10.6625C0.516604 10.2926 0.967575 10.1438 1.33748 10.3302C4.02438 11.6842 6.99123 12.3894 9.99998 12.3894C13.0087 12.3894 15.9756 11.6842 18.6625 10.3302C19.0324 10.1438 19.4834 10.2926 19.6698 10.6625C19.8561 11.0324 19.7074 11.4834 19.3375 11.6698C16.4412 13.1292 13.2432 13.8894 9.99998 13.8894C6.75678 13.8894 3.55874 13.1292 0.662479 11.6698C0.292575 11.4834 0.143812 11.0324 0.330208 10.6625Z" fill="#ECB22D"/>
</svg>
