<svg width="20" height="20" viewBox="0 0 20 20" fill="none" xmlns="http://www.w3.org/2000/svg">
<path fill-rule="evenodd" clip-rule="evenodd" d="M9.50305 0.438284C9.78681 0.187239 10.2132 0.187239 10.497 0.438284C12.6868 2.3757 15.5449 3.38444 18.4657 3.25078C18.8109 3.23499 19.1221 3.45701 19.2196 3.78848C19.7015 5.42793 19.849 7.14753 19.6532 8.84511C19.4574 10.5427 18.9224 12.1836 18.0799 13.6703C17.2375 15.157 16.1047 16.4592 14.7491 17.4995C13.3934 18.5398 11.8424 19.2969 10.1883 19.726C10.0648 19.758 9.93521 19.758 9.81171 19.726C8.15763 19.2969 6.60666 18.5398 5.25098 17.4995C3.8953 16.4592 2.76257 15.157 1.9201 13.6703C1.07763 12.1836 0.542606 10.5427 0.346831 8.84511C0.151057 7.14753 0.298522 5.42793 0.780464 3.78848C0.877903 3.45701 1.18917 3.23499 1.5343 3.25078C4.45511 3.38444 7.31321 2.3757 9.50305 0.438284ZM2.07266 4.76253C1.7663 6.04085 1.68602 7.36448 1.83695 8.67326C2.0097 10.1711 2.48177 11.619 3.22513 12.9308C3.96849 14.2426 4.96796 15.3916 6.16414 16.3095C7.30875 17.1878 8.61112 17.8374 10 18.2234C11.3889 17.8374 12.6913 17.1878 13.8359 16.3095C15.0321 15.3916 16.0315 14.2426 16.7749 12.9308C17.5183 11.619 17.9903 10.1711 18.1631 8.67326C18.314 7.36447 18.2337 6.04085 17.9274 4.76253C15.0463 4.75719 12.2515 3.77568 10 1.97935C7.74856 3.77568 4.95373 4.75719 2.07266 4.76253Z" fill="#ECB22D"/>
<path fill-rule="evenodd" clip-rule="evenodd" d="M8.76256 7.76256C9.09075 7.43438 9.53587 7.25 10 7.25C10.4641 7.25 10.9092 7.43438 11.2374 7.76256C11.5656 8.09075 11.75 8.53587 11.75 9C11.75 9.46413 11.5656 9.90925 11.2374 10.2374C10.9092 10.5656 10.4641 10.75 10 10.75C9.53587 10.75 9.09075 10.5656 8.76256 10.2374C8.43438 9.90925 8.25 9.46413 8.25 9C8.25 8.53587 8.43438 8.09075 8.76256 7.76256ZM10 8.75C9.9337 8.75 9.87011 8.77634 9.82322 8.82322C9.77634 8.87011 9.75 8.9337 9.75 9C9.75 9.0663 9.77634 9.12989 9.82322 9.17678C9.87011 9.22366 9.9337 9.25 10 9.25C10.0663 9.25 10.1299 9.22366 10.1768 9.17678C10.2237 9.12989 10.25 9.0663 10.25 9C10.25 8.9337 10.2237 8.87011 10.1768 8.82322C10.1299 8.77634 10.0663 8.75 10 8.75Z" fill="#ECB22D"/>
<path fill-rule="evenodd" clip-rule="evenodd" d="M10 9.25C10.4142 9.25 10.75 9.58579 10.75 10V12.5C10.75 12.9142 10.4142 13.25 10 13.25C9.58579 13.25 9.25 12.9142 9.25 12.5V10C9.25 9.58579 9.58579 9.25 10 9.25Z" fill="#ECB22D"/>
</svg>
