<svg width="162" height="20" viewBox="0 0 162 20" fill="none" xmlns="http://www.w3.org/2000/svg">
<path d="M39 10.5C39 14.625 35.6237 18 31.4612 18C26.0037 18 23.2287 14.2499 20.5 10.5C17.7713 6.74998 14.9962 3 9.53869 3C5.3762 3 2 6.37501 2 10.5" stroke="url(#paint0_linear_416_23)" stroke-width="4" stroke-miterlimit="10"/>
<path d="M39 10.5C39 6.37501 35.6237 3 31.4612 3C26.0038 3 23.2288 6.74998 20.5 10.5C17.7712 14.25 14.9962 18 9.53871 18C5.37621 18 2 14.625 2 10.5" stroke="url(#paint1_linear_416_23)" stroke-width="4" stroke-miterlimit="10"/>
<path d="M53.5344 19.9581V0.597168H56.072V17.4327H64.0016V19.9581H53.5344ZM66.549 4.6377V1.94401H69.0866V4.6377H66.549ZM66.549 19.9581V5.98455H69.0866V19.9581H66.549ZM100.834 4.6377V1.94401H103.372V4.6377H100.834ZM100.834 19.9581V5.98455H103.372V19.9581H100.834ZM83.3298 11.0773C83.2508 10.5302 83.1316 9.94089 82.9334 9.35166C82.7352 8.76243 82.4179 8.21527 82.061 7.71017C81.6646 7.20513 81.1885 6.78423 80.5545 6.48965C79.9197 6.195 79.1665 6.02661 78.2545 6.02661C77.0654 6.02661 76.0738 6.2792 75.2415 6.82636C74.8451 7.07888 74.5278 7.37346 74.2104 7.71017V6.02661H71.6728V20.0002H74.2104V13.0555H74.2499C74.2499 12.2137 74.3296 11.5403 74.5278 10.951C74.6865 10.3618 74.9241 9.89882 75.2415 9.56211C75.5589 9.2254 75.9151 8.97289 76.3121 8.80449C76.7085 8.63617 77.1444 8.55198 77.6205 8.55198C78.3342 8.55198 78.8893 8.7203 79.3252 9.01495C79.7617 9.3096 80.0784 9.73043 80.3563 10.1935C80.594 10.6985 80.7527 11.2036 80.8317 11.7928C80.9114 12.3821 80.9509 12.9292 80.9509 13.4764V20.0002H83.528V12.5505C83.449 12.1295 83.4095 11.6244 83.3298 11.0773ZM147.41 11.0773C147.331 10.5302 147.212 9.94089 147.014 9.35166C146.816 8.76243 146.498 8.21527 146.141 7.71017C145.745 7.20513 145.27 6.78423 144.635 6.48965C144.001 6.195 143.248 6.02661 142.336 6.02661C141.146 6.02661 140.155 6.2792 139.322 6.82636C138.926 7.07888 138.608 7.37346 138.291 7.71017V6.02661H135.753V20.0002H138.291V13.0555H138.331C138.331 12.2137 138.41 11.5403 138.608 10.951C138.767 10.3618 139.005 9.89882 139.322 9.56211C139.639 9.2254 139.996 8.97289 140.393 8.80449C140.789 8.63617 141.225 8.55198 141.701 8.55198C142.415 8.55198 142.97 8.7203 143.406 9.01495C143.842 9.3096 144.16 9.73043 144.397 10.1935C144.635 10.6985 144.794 11.2036 144.873 11.7928C144.952 12.3821 144.992 12.9292 144.992 13.4764V20.0002H147.569V12.5505C147.529 12.1295 147.49 11.6244 147.41 11.0773ZM97.2563 13.6868H98.5251C98.6041 12.0874 98.4454 10.7406 97.97 9.56211C97.494 8.42572 96.7802 7.49978 95.8683 6.91049C94.9169 6.2792 93.7672 5.98455 92.4589 5.98455C91.1901 5.98455 90.0398 6.2792 89.0883 6.86842C88.1369 7.45765 87.3836 8.25733 86.8286 9.35166C86.2735 10.4039 86.0351 11.6666 86.0351 13.0975C86.0351 14.4444 86.313 15.665 86.8681 16.7172C87.4231 17.7694 88.1764 18.5691 89.168 19.1163C90.159 19.7055 91.3086 20.0002 92.6169 20.0002C93.8857 20.0002 95.036 19.6634 96.1067 19.0321C97.1371 18.4008 97.9306 17.4749 98.4454 16.2963L95.948 15.4967C95.6306 16.1701 95.1545 16.7172 94.5995 17.054C94.0049 17.4327 93.3307 17.6011 92.5379 17.6011C91.3086 17.6011 90.3966 17.2223 89.7626 16.4226C89.247 15.7492 88.9296 14.8653 88.8506 13.771H96.1067H97.2563V13.6868ZM89.6434 9.47792C90.2782 8.67824 91.2296 8.25733 92.4984 8.25733C93.648 8.25733 94.5205 8.63617 95.0755 9.35166C95.4719 9.85676 95.7498 10.6143 95.8683 11.5403H88.771C88.9296 10.6985 89.247 10.0251 89.6434 9.47792ZM112.025 19.9581C110.676 19.9581 109.527 19.6634 108.575 19.0321C107.623 18.4429 106.909 17.6011 106.394 16.5489C105.879 15.4967 105.641 14.2761 105.641 12.9713C105.641 11.6244 105.918 10.4039 106.434 9.35166C106.949 8.29946 107.663 7.45765 108.615 6.86842C109.566 6.2792 110.716 5.98455 112.025 5.98455C113.452 5.98455 114.681 6.36332 115.712 7.07888C116.742 7.79436 117.417 8.8045 117.734 10.0251L115.196 10.7406C114.959 9.98302 114.522 9.43585 113.967 9.01495C113.412 8.59404 112.739 8.38359 111.985 8.38359C111.152 8.38359 110.478 8.59404 109.923 8.97289C109.368 9.35166 108.972 9.89883 108.734 10.6143C108.456 11.2877 108.337 12.0874 108.337 12.9713C108.337 14.3181 108.654 15.4545 109.289 16.2963C109.883 17.1382 110.795 17.559 112.025 17.559C112.857 17.559 113.492 17.3485 114.007 16.9698C114.522 16.591 114.919 16.0438 115.157 15.3283L117.734 15.9596C117.298 17.2644 116.584 18.2324 115.593 18.948C114.641 19.6214 113.412 19.9581 112.025 19.9581ZM126.744 19.9581C125.435 19.9581 124.285 19.6634 123.334 19.0742C122.382 18.4849 121.629 17.6432 121.114 16.591C120.598 15.5387 120.32 14.3181 120.32 12.9713C120.32 11.5824 120.598 10.3618 121.114 9.3096C121.669 8.25733 122.382 7.45765 123.373 6.86842C124.325 6.2792 125.475 5.98455 126.744 5.98455C128.052 5.98455 129.202 6.2792 130.153 6.86842C131.106 7.45765 131.859 8.29946 132.414 9.35166C132.929 10.4039 133.207 11.6244 133.207 12.9713C133.207 14.3603 132.929 15.5809 132.414 16.633C131.898 17.6852 131.145 18.485 130.153 19.1163C129.162 19.6634 128.052 19.9581 126.744 19.9581ZM126.744 17.559C128.013 17.559 128.925 17.1382 129.559 16.2963C130.194 15.4545 130.51 14.3603 130.51 12.9713C130.51 11.5824 130.194 10.4881 129.559 9.64631C128.925 8.80449 128.013 8.38359 126.744 8.38359C125.872 8.38359 125.197 8.59404 124.642 8.97289C124.087 9.35166 123.691 9.89882 123.413 10.5722C123.136 11.2457 123.017 12.0453 123.017 12.9292C123.017 14.3181 123.334 15.4125 123.968 16.2543C124.563 17.1381 125.515 17.559 126.744 17.559ZM155.786 19.9581C154.2 19.9581 152.892 19.6214 151.86 18.9058C150.87 18.1903 150.235 17.1802 149.997 15.9176L152.614 15.4967C152.772 16.1701 153.169 16.7172 153.724 17.1381C154.319 17.5169 155.033 17.7274 155.905 17.7274C156.698 17.7274 157.332 17.559 157.769 17.2223C158.205 16.8856 158.442 16.4647 158.442 15.8754C158.442 15.5387 158.363 15.2862 158.205 15.0758C158.046 14.8653 157.729 14.6548 157.214 14.4865C156.698 14.3181 155.945 14.0656 154.914 13.771C153.804 13.4764 152.892 13.1397 152.217 12.803C151.543 12.4663 151.068 12.0453 150.79 11.6244C150.513 11.1615 150.354 10.6143 150.354 9.98302C150.354 9.18334 150.552 8.46778 150.988 7.87856C151.425 7.28933 152.019 6.82636 152.772 6.48965C153.526 6.15294 154.438 5.98455 155.469 5.98455C156.46 5.98455 157.372 6.15294 158.165 6.44752C158.958 6.78423 159.593 7.20513 160.068 7.79436C160.544 8.38359 160.861 9.05701 160.94 9.85676L158.324 10.3197C158.244 9.68837 157.927 9.18334 157.451 8.80449C156.936 8.42572 156.302 8.21527 155.508 8.21527C154.755 8.1732 154.121 8.29946 153.645 8.59404C153.169 8.88869 152.931 9.26747 152.931 9.77257C152.931 10.0671 153.01 10.3197 153.209 10.5302C153.407 10.7406 153.764 10.951 154.279 11.1194C154.794 11.2877 155.588 11.5403 156.618 11.7928C157.728 12.0874 158.601 12.3821 159.236 12.7608C159.87 13.0975 160.346 13.5185 160.623 13.9814C160.901 14.4444 161.06 15.0337 161.06 15.7071C161.06 17.0118 160.584 18.0641 159.632 18.7796C158.76 19.5793 157.451 19.9581 155.786 19.9581Z" fill="black"/>
<defs>
<linearGradient id="paint0_linear_416_23" x1="2" y1="6.74998" x2="20.5142" y2="6.74998" gradientUnits="userSpaceOnUse">
<stop offset="0.2862" stop-color="#E843A1"/>
<stop offset="1" stop-color="#003FFF"/>
</linearGradient>
<linearGradient id="paint1_linear_416_23" x1="2" y1="10.5" x2="39.0144" y2="10.5" gradientUnits="userSpaceOnUse">
<stop offset="0.16" stop-color="#E843A1"/>
<stop offset="0.84" stop-color="#690AFF"/>
</linearGradient>
</defs>
</svg>
