<svg width="50" height="109" viewBox="0 0 50 109" fill="none" xmlns="http://www.w3.org/2000/svg">
<circle cx="47.71" cy="107.259" r="1.74121" transform="rotate(180 47.71 107.259)" fill="#3056D3"/>
<circle cx="47.71" cy="91.9355" r="1.74121" transform="rotate(180 47.71 91.9355)" fill="#3056D3"/>
<circle cx="47.71" cy="76.6133" r="1.74121" transform="rotate(180 47.71 76.6133)" fill="#3056D3"/>
<circle cx="47.71" cy="47.0127" r="1.74121" transform="rotate(180 47.71 47.0127)" fill="#3056D3"/>
<circle cx="47.71" cy="16.7158" r="1.74121" transform="rotate(180 47.71 16.7158)" fill="#3056D3"/>
<circle cx="47.71" cy="61.6396" r="1.74121" transform="rotate(180 47.71 61.6396)" fill="#3056D3"/>
<circle cx="47.71" cy="32.0381" r="1.74121" transform="rotate(180 47.71 32.0381)" fill="#3056D3"/>
<circle cx="47.71" cy="1.74121" r="1.74121" transform="rotate(180 47.71 1.74121)" fill="#3056D3"/>
<circle cx="32.3877" cy="107.259" r="1.74121" transform="rotate(180 32.3877 107.259)" fill="#3056D3"/>
<circle cx="32.3877" cy="91.9355" r="1.74121" transform="rotate(180 32.3877 91.9355)" fill="#3056D3"/>
<circle cx="32.3877" cy="76.6133" r="1.74121" transform="rotate(180 32.3877 76.6133)" fill="#3056D3"/>
<circle cx="32.3877" cy="47.0137" r="1.74121" transform="rotate(180 32.3877 47.0137)" fill="#3056D3"/>
<circle cx="32.3877" cy="16.7158" r="1.74121" transform="rotate(180 32.3877 16.7158)" fill="#3056D3"/>
<circle cx="32.3877" cy="61.6396" r="1.74121" transform="rotate(180 32.3877 61.6396)" fill="#3056D3"/>
<circle cx="32.3877" cy="32.0391" r="1.74121" transform="rotate(180 32.3877 32.0391)" fill="#3056D3"/>
<circle cx="32.3877" cy="1.74121" r="1.74121" transform="rotate(180 32.3877 1.74121)" fill="#3056D3"/>
<circle cx="17.0654" cy="107.259" r="1.74121" transform="rotate(180 17.0654 107.259)" fill="#3056D3"/>
<circle cx="17.0654" cy="91.9355" r="1.74121" transform="rotate(180 17.0654 91.9355)" fill="#3056D3"/>
<circle cx="17.0654" cy="76.6133" r="1.74121" transform="rotate(180 17.0654 76.6133)" fill="#3056D3"/>
<circle cx="17.0654" cy="47.0127" r="1.74121" transform="rotate(180 17.0654 47.0127)" fill="#3056D3"/>
<circle cx="17.0654" cy="16.7158" r="1.74121" transform="rotate(180 17.0654 16.7158)" fill="#3056D3"/>
<circle cx="17.0654" cy="61.6387" r="1.74121" transform="rotate(180 17.0654 61.6387)" fill="#3056D3"/>
<circle cx="17.0654" cy="32.0391" r="1.74121" transform="rotate(180 17.0654 32.0391)" fill="#3056D3"/>
<circle cx="17.0654" cy="1.74121" r="1.74121" transform="rotate(180 17.0654 1.74121)" fill="#3056D3"/>
<circle cx="1.74121" cy="107.259" r="1.74121" transform="rotate(180 1.74121 107.259)" fill="#3056D3"/>
<circle cx="1.74121" cy="91.9355" r="1.74121" transform="rotate(180 1.74121 91.9355)" fill="#3056D3"/>
<circle cx="1.74121" cy="76.6133" r="1.74121" transform="rotate(180 1.74121 76.6133)" fill="#3056D3"/>
<circle cx="1.74121" cy="47.0137" r="1.74121" transform="rotate(180 1.74121 47.0137)" fill="#3056D3"/>
<circle cx="1.74121" cy="16.7158" r="1.74121" transform="rotate(180 1.74121 16.7158)" fill="#3056D3"/>
<circle cx="1.74121" cy="61.6396" r="1.74121" transform="rotate(180 1.74121 61.6396)" fill="#3056D3"/>
<circle cx="1.74121" cy="32.0381" r="1.74121" transform="rotate(180 1.74121 32.0381)" fill="#3056D3"/>
<circle cx="1.74121" cy="1.74121" r="1.74121" transform="rotate(180 1.74121 1.74121)" fill="#3056D3"/>
</svg>
