<svg width="44" height="40" viewBox="0 0 44 40" fill="none" xmlns="http://www.w3.org/2000/svg">
<path d="M22 21.1716L30.4852 29.6568L27.6568 32.4852L24 28.83V40H20V28.826L16.3431 32.4852L13.5147 29.6568L22 21.1716ZM22 0C29.1868 0 35.1088 5.41522 35.9082 12.3879C40.5716 13.6631 44 17.9312 44 23C44 28.7376 39.6072 33.4492 34.0012 33.9552L34.0018 29.9288C37.3932 29.4428 40 26.5258 40 23C40 19.134 36.866 16 33 16C32.5824 16 32.1734 16.0366 31.7774 16.108C31.9232 15.4284 32 14.7232 32 14C32 8.47716 27.5228 4 22 4C16.4772 4 12 8.47716 12 14C12 14.7232 12.0768 15.4284 12.2241 16.1066C11.8266 16.0366 11.4176 16 11 16C7.134 16 4 19.134 4 23C4 26.4006 6.42482 29.2348 9.63972 29.868L10.0001 29.9292L10.0008 33.9552C4.39392 33.4504 0 28.7384 0 23C0 17.9312 3.42848 13.6631 8.09296 12.3882C8.89122 5.41522 14.8132 0 22 0Z" fill="url(#paint0_linear_13_338)"/>
<defs>
<linearGradient id="paint0_linear_13_338" x1="22" y1="0" x2="22" y2="40" gradientUnits="userSpaceOnUse">
<stop/>
<stop offset="1" stop-color="#666666" stop-opacity="0.86"/>
</linearGradient>
</defs>
</svg>
