<svg width="56" height="56" viewBox="0 0 56 56" fill="none" xmlns="http://www.w3.org/2000/svg">
<path d="M42.5579 13.4421L29.4561 11.9863L13.4426 13.4421L11.9866 27.9998L13.4423 42.5576L28.0001 44.3774L42.5579 42.5576L44.0136 27.6361L42.5579 13.4421Z" fill="white"/>
<path d="M19.4147 36.0284C18.3266 35.2933 17.5732 34.2198 17.1619 32.8003L19.6877 31.7595C19.917 32.633 20.3173 33.3098 20.8887 33.7902C21.4566 34.2707 22.1481 34.5072 22.956 34.5072C23.7822 34.5072 24.4919 34.256 25.085 33.7537C25.678 33.2514 25.9767 32.6108 25.9767 31.8358C25.9767 31.0425 25.6636 30.3945 25.0377 29.8925C24.4117 29.3904 23.6256 29.139 22.6866 29.139H21.2273V26.6389H22.5372C23.3452 26.6389 24.0259 26.4206 24.5791 25.9839C25.1323 25.5471 25.4089 24.9502 25.4089 24.1896C25.4089 23.5128 25.1613 22.974 24.6665 22.5701C24.1716 22.1663 23.5454 21.9625 22.7848 21.9625C22.0424 21.9625 21.4527 22.1591 21.016 22.5558C20.5792 22.9524 20.2625 23.44 20.0625 24.0151L17.5624 22.9742C17.8935 22.0352 18.5014 21.2054 19.3929 20.4885C20.2846 19.7715 21.4237 19.4111 22.8066 19.4111C23.8292 19.4111 24.75 19.6078 25.5654 20.0044C26.3805 20.4011 27.0211 20.9507 27.4833 21.6493C27.9455 22.3516 28.1748 23.138 28.1748 24.0112C28.1748 24.9029 27.9602 25.6561 27.5306 26.2749C27.1011 26.8936 26.5733 27.3666 25.9474 27.6979V27.847C26.7736 28.1928 27.4468 28.7205 27.9782 29.4303C28.5059 30.14 28.7714 30.988 28.7714 31.978C28.7714 32.9679 28.5203 33.8522 28.018 34.6275C27.5157 35.4028 26.8206 36.0141 25.9399 36.458C25.0556 36.9019 24.0621 37.1276 22.9593 37.1276C21.682 37.1312 20.5029 36.7636 19.4147 36.0284Z" fill="#1A73E8"/>
<path d="M34.9149 23.4944L32.1561 25.4997L30.7695 23.3962L35.7447 19.8076H37.6518V36.7344H34.9149V23.4944Z" fill="#1A73E8"/>
<path d="M42.5578 55.6595L55.6596 42.5577L49.1087 39.6462L42.5578 42.5577L39.6464 49.1086L42.5578 55.6595Z" fill="#EA4335"/>
<path d="M10.5308 49.1085L13.4422 55.6594H42.5575V42.5576H13.4422L10.5308 49.1085Z" fill="#34A853"/>
<path d="M4.70763 0.340332C2.29488 0.340332 0.340454 2.29476 0.340454 4.70751V42.5575L6.89136 45.4689L13.4423 42.5575V13.4421H42.5576L45.469 6.89123L42.5579 0.340332H4.70763Z" fill="#4285F4"/>
<path d="M0.340454 42.5576V51.2922C0.340454 53.7053 2.29488 55.6594 4.70762 55.6594H13.4422V42.5576H0.340454Z" fill="#188038"/>
<path d="M42.5579 13.4422V42.5575H55.6596V13.4422L49.1088 10.5308L42.5579 13.4422Z" fill="#FBBC04"/>
<path d="M55.6596 13.4421V4.7075C55.6596 2.29448 53.7052 0.340332 51.2925 0.340332H42.5579V13.4421H55.6596Z" fill="#1967D2"/>
</svg>
