<svg width="61" height="42" viewBox="0 0 61 42" fill="none" xmlns="http://www.w3.org/2000/svg">
<path fill-rule="evenodd" clip-rule="evenodd" d="M25.5665 4.66606C27.4862 2.67857 30.1609 1.44462 33.1174 1.44462C37.0479 1.44462 40.4778 3.62292 42.3038 6.85671C42.711 6.67599 43.1273 6.51698 43.551 6.37967C43.9752 6.24235 44.4057 6.12749 44.8419 6.03545C45.278 5.94341 45.7187 5.87419 46.1621 5.82817C46.6054 5.78215 47.051 5.75932 47.4966 5.7597C54.586 5.7597 60.3323 11.5209 60.3323 18.6286C60.3323 25.7363 54.586 31.4975 47.4966 31.4975C46.6298 31.4975 45.7846 31.4115 44.9672 31.2476C43.3595 34.0971 40.2934 36.0232 36.7762 36.0232C35.3039 36.0232 33.9107 35.6865 32.6714 35.0841C31.0408 38.896 27.242 41.5674 22.8159 41.5674C18.2065 41.5674 14.2767 38.6681 12.7691 34.6033C12.6013 34.6385 12.4327 34.6692 12.2633 34.6958C12.094 34.7223 11.9239 34.7444 11.7534 34.762C11.5829 34.7796 11.4117 34.793 11.2404 34.8016C11.0692 34.8106 10.898 34.8151 10.7264 34.8147C5.23709 34.8155 0.787255 30.3474 0.787255 24.8358C0.785373 23.9659 0.897522 23.0997 1.12107 22.259C1.34461 21.4183 1.67767 20.6101 2.11159 19.8547C2.54589 19.0997 3.07728 18.4041 3.69259 17.7856C4.3079 17.1672 5.00187 16.6314 5.75681 16.1914C5.59988 15.8326 5.46176 15.4659 5.34321 15.0929C5.22429 14.7199 5.12456 14.3412 5.04478 13.9581C4.96499 13.575 4.90515 13.1877 4.86526 12.7986C4.82537 12.4095 4.80542 12.0181 4.80618 11.6271C4.80618 5.28752 9.98385 0.148935 16.3711 0.148935C17.2577 0.147813 18.1417 0.248459 19.0054 0.448256C19.8688 0.648426 20.7065 0.946624 21.5013 1.33724C22.2961 1.72748 23.0432 2.20789 23.7274 2.76799C24.4119 3.32847 25.0287 3.96527 25.5665 4.66606Z" fill="#00A1E0"/>
<path fill-rule="evenodd" clip-rule="evenodd" d="M9.41228 21.6282L9.65314 20.9637C9.69152 20.8499 9.77808 20.8873 9.81346 20.9087C9.88045 20.948 9.92862 20.9839 10.0152 21.034C10.725 21.48 11.3828 21.4845 11.5879 21.4845C12.1193 21.4845 12.449 21.205 12.449 20.8279V20.8084C12.449 20.398 11.9409 20.2427 11.3542 20.0642L11.224 20.0227C10.4182 19.7948 9.55679 19.4656 9.55679 18.452V18.4314C9.55679 17.4695 10.3377 16.7986 11.455 16.7986L11.5777 16.7971C12.2341 16.7971 12.8682 16.9868 13.3281 17.2637C13.3699 17.2899 13.4101 17.3374 13.3868 17.401L13.1392 18.0655C13.0955 18.1789 12.9766 18.1037 12.9766 18.1037C12.8569 18.0419 12.7342 17.9869 12.6081 17.939C12.4825 17.8911 12.3541 17.8507 12.2235 17.8174C12.0933 17.7841 11.9608 17.7583 11.8276 17.74C11.694 17.722 11.5597 17.7112 11.4253 17.7086C10.9511 17.7086 10.6463 17.9581 10.6463 18.2975V18.3188C10.6463 18.7143 11.1687 18.883 11.7742 19.0791L11.8784 19.1116C12.6815 19.3638 13.5385 19.7133 13.5385 20.6745V20.6943C13.5385 21.7333 12.779 22.3783 11.5582 22.3783C10.9583 22.3783 10.3844 22.2863 9.77771 21.966C9.66292 21.9002 9.54964 21.8433 9.4375 21.7621C9.42583 21.7453 9.37465 21.7254 9.41153 21.6282H9.41228ZM27.5345 20.9637C27.5699 20.8548 27.6722 20.8952 27.6941 20.9087C27.7607 20.9495 27.81 20.9839 27.8962 21.034C28.6071 21.48 29.2638 21.4845 29.4708 21.4845C30.0003 21.4845 30.3303 21.205 30.3303 20.8279V20.8084C30.3303 20.398 29.823 20.2427 29.2363 20.0642L29.1061 20.0227C28.2992 19.7948 27.4378 19.4656 27.4378 18.452V18.4314C27.4378 17.4695 28.2191 16.7986 29.3368 16.7986L29.4583 16.7971C30.1147 16.7971 30.7499 16.9868 31.2102 17.2637C31.2505 17.2899 31.2915 17.3374 31.2689 17.401C31.246 17.4598 31.0427 18.0034 31.0213 18.0655C30.9765 18.1789 30.8587 18.1037 30.8587 18.1037C30.739 18.0419 30.616 17.9869 30.4903 17.939C30.3646 17.8911 30.2359 17.8507 30.1056 17.8174C29.9751 17.7841 29.8426 17.7583 29.7094 17.74C29.5758 17.722 29.4414 17.7112 29.3067 17.7086C28.8325 17.7086 28.5277 17.9581 28.5277 18.2975V18.3188C28.5277 18.7143 29.0493 18.883 29.6555 19.0791L29.7598 19.1116C30.5629 19.3638 31.4191 19.7133 31.4191 20.6745V20.6943C31.4191 21.7333 30.6607 22.3783 29.4395 22.3783C28.8389 22.3783 28.2653 22.2863 27.6591 21.966C27.5443 21.9002 27.431 21.8433 27.3185 21.7621C27.3068 21.7453 27.2553 21.7254 27.2929 21.6282L27.5345 20.9637ZM40.5197 18.5033C40.6198 18.837 40.6695 19.204 40.6695 19.5917C40.6695 19.98 40.6198 20.3456 40.5197 20.6797C40.4967 20.7598 40.4696 20.8387 40.4388 20.9162C40.4075 20.9936 40.3729 21.0696 40.3338 21.1436C40.295 21.2173 40.2525 21.2896 40.2062 21.3592C40.1599 21.4287 40.1102 21.4957 40.0572 21.5604C40.0041 21.6229 39.9473 21.6824 39.8874 21.7389C39.8272 21.795 39.7644 21.8482 39.6985 21.8976C39.6323 21.9466 39.5638 21.9922 39.4927 22.0337C39.4215 22.0756 39.3485 22.1131 39.2733 22.1467C38.9605 22.2889 38.5932 22.3604 38.1804 22.3604C37.7675 22.3604 37.3987 22.2889 37.0875 22.1467C37.0122 22.1131 36.9388 22.0756 36.8677 22.0337C36.7969 21.9922 36.7281 21.9466 36.6622 21.8976C36.5964 21.8482 36.5331 21.795 36.4733 21.7389C36.4135 21.6824 36.3566 21.6229 36.3036 21.5604C36.2505 21.4957 36.2005 21.4287 36.1545 21.3592C36.1082 21.2896 36.0657 21.2177 36.0266 21.1436C35.9878 21.0699 35.9528 20.994 35.9216 20.9165C35.8907 20.8395 35.8636 20.7605 35.8403 20.6801C35.8147 20.5918 35.7925 20.5027 35.7733 20.4129C35.7545 20.3228 35.7387 20.2322 35.7259 20.1413C35.7135 20.0504 35.7044 19.9587 35.6984 19.867C35.6924 19.7754 35.6898 19.6837 35.6905 19.5917C35.6905 19.2033 35.7409 18.837 35.8403 18.5033C35.9408 18.1665 36.0962 17.8702 36.3028 17.6229C36.3563 17.56 36.4131 17.5002 36.4729 17.4437C36.5331 17.3868 36.596 17.3337 36.6622 17.2839C36.7281 17.2341 36.7966 17.1881 36.8677 17.1458C36.9388 17.1039 37.0122 17.0654 37.0875 17.0314C37.3995 16.8866 37.766 16.8132 38.1804 16.8132C38.5943 16.8132 38.9613 16.8866 39.2733 17.0314C39.5845 17.1758 39.8487 17.3744 40.0572 17.6229C40.2642 17.8702 40.4207 18.1665 40.5197 18.5033ZM39.1739 18.2197C38.959 17.8986 38.6335 17.7434 38.1804 17.7434C37.7269 17.7434 37.404 17.8986 37.1917 18.2197C36.9787 18.5433 36.87 19.0046 36.87 19.5917C36.87 20.178 36.9787 20.6427 37.1929 20.9689C37.404 21.2937 37.7269 21.4508 38.1804 21.4508C38.6335 21.4508 38.959 21.2929 39.1739 20.9689C39.3903 20.6427 39.5009 20.178 39.5009 19.5917C39.5009 19.0046 39.3914 18.5433 39.1739 18.2197ZM48.8929 21.2937L49.1431 21.981C49.1755 22.0652 49.1021 22.1018 49.1021 22.1018C48.716 22.2508 48.1801 22.357 47.6585 22.357C46.7741 22.357 46.0967 22.1041 45.6447 21.6042C45.1953 21.1059 44.9661 20.4283 44.9661 19.5879C44.9661 19.1988 45.023 18.8306 45.1336 18.4973C45.2442 18.1609 45.4102 17.8642 45.6292 17.6173C45.6857 17.554 45.7455 17.4938 45.8088 17.4369C45.872 17.3801 45.9382 17.3266 46.0071 17.2768C46.0763 17.2274 46.1478 17.1814 46.222 17.1395C46.2957 17.0972 46.3721 17.0594 46.4504 17.0257C46.7759 16.8813 47.1587 16.8087 47.5862 16.8087C47.8745 16.8087 48.1311 16.8263 48.3513 16.8589C48.5861 16.8948 48.8996 16.979 49.0317 17.0302C49.0558 17.0392 49.1228 17.0718 49.0957 17.15C48.9994 17.4197 48.9335 17.5959 48.8443 17.8418C48.8052 17.9465 48.7258 17.9117 48.7258 17.9117C48.3904 17.807 48.0687 17.7591 47.6487 17.7591C47.144 17.7591 46.7647 17.9259 46.5174 18.2526C46.2671 18.5822 46.1271 19.0136 46.1253 19.5879C46.1234 20.2176 46.2822 20.6842 46.5637 20.9727C46.8444 21.2607 47.2362 21.4063 47.73 21.4063C47.9298 21.4063 48.1187 21.3932 48.2888 21.367C48.4567 21.3404 48.6144 21.2884 48.7626 21.2308C48.7626 21.2308 48.8586 21.1953 48.8929 21.2937ZM54.2116 19.7892C54.203 19.8771 54.1119 19.8783 54.1119 19.8783L50.6613 19.8756C50.6827 20.3968 50.8084 20.7657 51.0624 21.0161C51.3116 21.2615 51.7075 21.4186 52.2438 21.4194C53.0627 21.4213 53.4127 21.2574 53.6607 21.1661C53.6607 21.1661 53.7551 21.1324 53.7909 21.2256L54.0156 21.8542C54.0611 21.9597 54.0246 21.9967 53.9862 22.018C53.7702 22.1363 53.246 22.3578 52.2483 22.3604C51.7643 22.3622 51.3428 22.2934 50.9958 22.1595C50.9138 22.1295 50.8333 22.0944 50.7554 22.0551C50.6774 22.0158 50.6014 21.972 50.5284 21.9237C50.4554 21.8759 50.3854 21.8235 50.3184 21.7673C50.2514 21.7112 50.1878 21.6514 50.1276 21.5881C50.0704 21.526 50.0166 21.4605 49.9665 21.3925C49.9165 21.3244 49.8702 21.2536 49.8281 21.1803C49.7859 21.107 49.7483 21.0314 49.7144 20.9539C49.6809 20.8765 49.6516 20.7972 49.6271 20.7164C49.6004 20.6277 49.577 20.5383 49.5571 20.4477C49.5371 20.3576 49.5206 20.2663 49.5078 20.1746C49.4946 20.0833 49.4852 19.9913 49.4792 19.8988C49.4732 19.8064 49.4705 19.714 49.4713 19.6216C49.4713 19.2332 49.5213 18.8643 49.6226 18.5272C49.7234 18.1875 49.8804 17.8878 50.0892 17.636C50.1434 17.572 50.2006 17.511 50.2616 17.4534C50.3222 17.3958 50.3862 17.3415 50.4532 17.291C50.5198 17.2401 50.5894 17.1934 50.6616 17.1507C50.7335 17.1077 50.808 17.0688 50.8844 17.034C51.2009 16.8858 51.5931 16.8132 52.024 16.8132C52.3936 16.8132 52.7308 16.8922 53.0115 17.0126C53.2275 17.1047 53.445 17.2708 53.6678 17.5091C53.8086 17.6592 54.0227 17.9881 54.1093 18.3121C54.3313 19.0851 54.2154 19.7522 54.2116 19.7892ZM53.1391 19.0286C53.1135 18.7143 53.0518 18.4318 52.9099 18.2197C52.6935 17.8986 52.3954 17.722 51.9427 17.722C51.4896 17.722 51.1678 17.8986 50.9548 18.2197C50.8156 18.4318 50.7256 18.7023 50.6767 19.0286H53.1391ZM26.5714 19.7892C26.5624 19.8771 26.4713 19.8783 26.4713 19.8783L23.0196 19.8756C23.0418 20.3968 23.1667 20.7657 23.4215 21.0161C23.671 21.2615 24.0662 21.4186 24.6021 21.4194C25.4214 21.4213 25.7725 21.2574 26.0197 21.1661C26.0197 21.1661 26.1142 21.1324 26.1496 21.2256L26.375 21.8542C26.4205 21.9597 26.384 21.9967 26.346 22.018C26.1285 22.1363 25.6039 22.3578 24.6073 22.3604C24.123 22.3622 23.7015 22.2934 23.3549 22.1595C23.2728 22.1295 23.1927 22.0944 23.1144 22.0551C23.0365 22.0154 22.9605 21.9716 22.8875 21.9237C22.8145 21.8755 22.7441 21.8235 22.6771 21.7673C22.6101 21.7112 22.5465 21.6514 22.4863 21.5881C22.4291 21.526 22.3753 21.4605 22.3256 21.3925C22.2755 21.3244 22.2296 21.2533 22.1875 21.1799C22.1453 21.107 22.1077 21.0314 22.0742 20.9539C22.0407 20.8765 22.0113 20.7972 21.9869 20.7164C21.9598 20.6277 21.9365 20.5383 21.9165 20.4477C21.8966 20.3576 21.8796 20.2663 21.8668 20.175C21.8537 20.0833 21.8439 19.9913 21.8379 19.8988C21.8315 19.8064 21.8288 19.714 21.83 19.6216C21.83 19.2332 21.8808 18.8643 21.9809 18.5272C22.0042 18.446 22.0317 18.3663 22.0633 18.2877C22.0949 18.2096 22.1303 18.1329 22.1694 18.058C22.2086 17.9832 22.2518 17.9106 22.2981 17.8399C22.3448 17.7695 22.3952 17.7015 22.4487 17.636C22.5025 17.572 22.5601 17.511 22.6206 17.4534C22.6816 17.3958 22.7452 17.3415 22.8122 17.291C22.8788 17.2405 22.9484 17.1937 23.0203 17.1507C23.0926 17.1077 23.1667 17.0688 23.2431 17.034C23.5607 16.8858 23.9529 16.8132 24.3827 16.8132C24.4673 16.8132 24.552 16.8173 24.6363 16.8256C24.7206 16.8338 24.8042 16.8465 24.8873 16.863C24.9701 16.8798 25.0522 16.9008 25.1331 16.9258C25.214 16.9505 25.2934 16.9797 25.3713 17.0126C25.5873 17.1047 25.8048 17.2708 26.0269 17.5091C26.1676 17.6592 26.3821 17.9881 26.468 18.3121C26.6892 19.0851 26.5752 19.7522 26.5714 19.7892ZM25.4981 19.0286C25.4722 18.7143 25.4104 18.4318 25.2689 18.2197C25.054 17.8986 24.7545 17.722 24.3021 17.722C23.8486 17.722 23.5265 17.8986 23.3146 18.2197C23.1739 18.4318 23.0847 18.7023 23.0346 19.0286H25.4981ZM17.5182 18.9317V18.7865C17.5182 18.3289 17.4223 18.1134 17.2341 17.9693C17.0414 17.8231 16.7535 17.7471 16.3809 17.7471C16.3809 17.7471 15.541 17.737 14.8767 18.0954C14.8462 18.1134 14.8206 18.1239 14.8206 18.1239C14.8206 18.1239 14.7375 18.1531 14.7074 18.0681L14.4631 17.416C14.4255 17.3221 14.4936 17.2794 14.4936 17.2794C14.8045 17.0385 15.5571 16.8929 15.5571 16.8929C15.6335 16.8798 15.7103 16.8678 15.7871 16.8577C15.8639 16.8476 15.941 16.8387 16.0182 16.8316C16.0953 16.8248 16.1728 16.8192 16.2504 16.8151C16.3275 16.8114 16.405 16.8091 16.4826 16.8084C17.1716 16.8084 17.7049 16.9674 18.0677 17.2824C18.4312 17.5989 18.616 18.1089 18.616 18.7962L18.6179 21.9338C18.6179 21.9338 18.6251 22.0244 18.5385 22.045C18.5385 22.045 18.4117 22.0801 18.2976 22.1067C18.1825 22.1329 17.767 22.2171 17.4275 22.2743C17.341 22.2885 17.2541 22.3013 17.1671 22.3121C17.0798 22.323 16.9925 22.3319 16.9052 22.3391C16.8175 22.3465 16.7302 22.3518 16.6425 22.3555C16.5548 22.3589 16.4668 22.3608 16.3791 22.3608C16.0437 22.3608 15.7363 22.3297 15.4653 22.2683C15.4025 22.2552 15.3404 22.2392 15.279 22.2197C15.2177 22.2002 15.1575 22.1778 15.0988 22.1524C15.0397 22.1269 14.9821 22.0985 14.926 22.0674C14.8699 22.0364 14.8154 22.0023 14.7627 21.9653C14.7149 21.9309 14.6694 21.8934 14.6261 21.8534C14.5828 21.813 14.5422 21.7703 14.5045 21.7251C14.4665 21.6798 14.4315 21.6323 14.3995 21.5829C14.3675 21.5335 14.3389 21.4819 14.3133 21.4291C14.2072 21.2136 14.1538 20.9502 14.1538 20.646C14.1538 20.3474 14.217 20.0814 14.3389 19.8551C14.4612 19.6298 14.6291 19.439 14.8402 19.2893C14.8944 19.2516 14.9505 19.2156 15.0081 19.1827C15.0656 19.1498 15.1247 19.1191 15.1849 19.0914C15.2455 19.0637 15.3069 19.0383 15.3693 19.0162C15.4318 18.9938 15.4954 18.9743 15.5598 18.9575C15.8289 18.8864 16.1149 18.8493 16.4103 18.8493C16.6271 18.8493 16.8081 18.8538 16.9488 18.8651C16.9488 18.8651 17.2213 18.889 17.5182 18.9317ZM16.5876 21.4748C17.0809 21.4452 17.5186 21.352 17.5186 21.352V19.7922C17.5186 19.7922 17.0772 19.7204 16.5815 19.7133C15.8789 19.705 15.5793 19.9617 15.5812 19.9613C15.3742 20.1076 15.2734 20.3243 15.2734 20.6247C15.2734 20.8166 15.308 20.967 15.3776 21.0718C15.4213 21.141 15.4401 21.1668 15.5756 21.275C15.5737 21.2742 15.8849 21.5178 16.5876 21.4748ZM44.5258 17.8171C44.5036 17.8766 44.4671 17.9173 44.4001 17.9102C44.4001 17.9102 44.2022 17.865 44.0211 17.865C43.897 17.865 43.7189 17.8807 43.5586 17.9297C43.5187 17.942 43.4796 17.9566 43.4416 17.9735C43.4032 17.9903 43.3659 18.0098 43.3302 18.0311C43.2944 18.0524 43.2598 18.076 43.2271 18.1018C43.194 18.1272 43.1623 18.1546 43.133 18.1841C43.0065 18.305 42.9042 18.4752 42.83 18.6888C42.7544 18.9036 42.7156 19.2456 42.7156 19.5883V22.1434C42.7156 22.1572 42.713 22.1707 42.7077 22.1834C42.7025 22.1958 42.6949 22.2074 42.6851 22.2171C42.6754 22.2268 42.6641 22.2343 42.6513 22.2395C42.6385 22.2448 42.6249 22.2478 42.6114 22.2478H41.7055C41.6916 22.2478 41.6777 22.2451 41.6649 22.2403C41.6521 22.235 41.6404 22.2276 41.6303 22.2178C41.6205 22.2081 41.6126 22.1969 41.6073 22.1842C41.6017 22.1714 41.5987 22.158 41.5987 22.1441V17.0284C41.5987 16.9707 41.6408 16.9247 41.6988 16.9247H42.5828C42.6411 16.9247 42.6829 16.9707 42.6829 17.0284V17.4463C42.815 17.2704 43.0521 17.1148 43.2666 17.019C43.4815 16.9221 43.7216 16.851 44.1559 16.8768C44.3821 16.8903 44.6756 16.952 44.7351 16.9745C44.7464 16.979 44.7569 16.9861 44.7659 16.9947C44.775 17.0033 44.7817 17.0138 44.7866 17.0254C44.7915 17.0366 44.7938 17.0489 44.7938 17.0613C44.7938 17.0736 44.7911 17.086 44.7862 17.0976C44.7539 17.1915 44.5864 17.661 44.5258 17.8171ZM36.3386 14.8459L36.0736 15.5662C36.0514 15.6208 36.0371 15.653 35.9246 15.6193C35.8873 15.6077 35.8497 15.5976 35.8117 15.5886C35.7737 15.58 35.7353 15.5725 35.6969 15.5666C35.6585 15.5606 35.6198 15.5561 35.581 15.5531C35.5419 15.5501 35.5031 15.5482 35.464 15.5482C35.3273 15.5482 35.2035 15.5658 35.094 15.6017C35.0669 15.6107 35.0402 15.6208 35.0142 15.6328C34.9883 15.6447 34.963 15.6582 34.9386 15.6732C34.9145 15.6878 34.8908 15.7042 34.8686 15.7222C34.8464 15.7398 34.8249 15.7589 34.805 15.7791C34.7783 15.8049 34.7531 15.8318 34.7293 15.8603C34.7056 15.8887 34.6838 15.9183 34.6635 15.9489C34.6432 15.9796 34.6243 16.0118 34.6078 16.0443C34.5908 16.0773 34.5758 16.1109 34.5626 16.1454C34.4358 16.5079 34.3869 16.8944 34.3805 16.9187H35.4835C35.5769 16.9187 35.6058 16.9618 35.5968 17.0295L35.4681 17.7426C35.447 17.8463 35.3526 17.8425 35.3526 17.8425H34.2156L33.4389 22.2145C33.4219 22.3125 33.4031 22.4101 33.382 22.5074C33.361 22.6043 33.338 22.7012 33.3124 22.7974C33.2872 22.8935 33.2597 22.989 33.2304 23.084C33.2007 23.1786 33.169 23.2729 33.1352 23.3665C33.0136 23.683 32.8879 23.9142 32.6858 24.1346C32.6429 24.184 32.597 24.2304 32.5485 24.2738C32.4999 24.3172 32.4484 24.3576 32.3949 24.395C32.3411 24.4321 32.285 24.4661 32.2271 24.496C32.1695 24.5263 32.1096 24.5533 32.0483 24.5761C31.8093 24.6636 31.5188 24.7082 31.2015 24.7082C31.0506 24.7082 30.8877 24.7048 30.6957 24.6595C30.669 24.6535 30.6423 24.6472 30.6156 24.6401C30.5892 24.6333 30.5629 24.6259 30.5366 24.6184C30.5102 24.6109 30.4839 24.6027 30.4579 24.5941C30.4316 24.5858 30.4056 24.5768 30.38 24.5679C30.3375 24.5529 30.3028 24.499 30.3277 24.4306C30.3514 24.3625 30.5557 23.8065 30.5832 23.7335C30.6182 23.6456 30.7082 23.6793 30.7082 23.6793C30.7691 23.7051 30.8124 23.7219 30.8937 23.738C30.9765 23.7541 31.0871 23.7683 31.1711 23.7683C31.3216 23.7683 31.4582 23.7503 31.5775 23.7103C31.7209 23.6643 31.8056 23.5809 31.8925 23.4694C31.984 23.3523 32.0581 23.1936 32.1341 22.9807C32.2105 22.7652 32.2801 22.4805 32.34 22.1355L33.1137 17.8429H32.3516C32.2606 17.8429 32.2293 17.8002 32.2399 17.7318L32.3674 17.0186C32.3878 16.915 32.4845 16.9187 32.4845 16.9187H33.2669L33.309 16.6871C33.4265 15.9987 33.6587 15.4749 34.0026 15.1314C34.3485 14.7853 34.84 14.6106 35.464 14.6106C35.6423 14.6106 35.8 14.6222 35.9336 14.6461C36.0646 14.6705 36.1639 14.6933 36.275 14.727C36.299 14.7367 36.3645 14.7685 36.3386 14.8459ZM20.7574 22.2478H19.8425C19.7838 22.2478 19.7439 22.201 19.7439 22.1441V14.8227C19.7439 14.7662 19.7846 14.7198 19.8418 14.7198H20.7574C20.8161 14.7198 20.8564 14.7662 20.8564 14.8235V22.1434C20.8564 22.2017 20.8161 22.2478 20.7574 22.2478Z" fill="white"/>
</svg>
