<svg width="53" height="55" viewBox="0 0 53 55" fill="none" xmlns="http://www.w3.org/2000/svg">
<path d="M40.8805 18.0663V11.5697C41.739 11.1684 42.4659 10.5316 42.9766 9.73331C43.4873 8.93501 43.7607 8.00809 43.765 7.06044V6.91138C43.765 4.14836 41.5252 1.90849 38.7624 1.90849H38.6131C35.8501 1.90849 33.6102 4.14836 33.6102 6.91138V7.06044C33.6146 8.00809 33.888 8.93501 34.3987 9.73331C34.9093 10.5316 35.6362 11.1684 36.4948 11.5697V18.0663C34.0273 18.4441 31.7035 19.4673 29.7586 21.0321L11.9413 7.15424C12.0684 6.69561 12.1347 6.22398 12.1421 5.7506C12.1443 4.63564 11.8158 3.54507 11.1981 2.61686C10.5804 1.68864 9.70124 0.96447 8.67191 0.535951C7.64258 0.107432 6.50928 -0.00618616 5.41537 0.209469C4.32146 0.425124 3.31608 0.960363 2.5264 1.74748C1.73672 2.5346 1.19823 3.53824 0.979025 4.63145C0.759823 5.72466 0.869765 6.85832 1.29494 7.88903C1.72012 8.91975 2.44144 9.80121 3.36764 10.4219C4.29385 11.0426 5.38335 11.3747 6.49831 11.3762C7.47371 11.3716 8.43083 11.1112 9.2741 10.6209L26.819 24.2735C23.5934 29.1463 23.6797 35.4969 27.0363 40.2805L21.7001 45.6183C21.2685 45.4805 20.8194 45.4071 20.3665 45.401C17.8109 45.4032 15.7405 47.4757 15.7412 50.0313C15.7418 52.5867 17.8135 54.6582 20.3689 54.6588C22.9245 54.6595 24.997 52.5891 24.9992 50.0335C24.9932 49.5807 24.9199 49.1314 24.7817 48.7001L30.0607 43.4192C34.7776 47.0503 41.2559 47.3632 46.3008 44.2034C51.3456 41.0434 53.8915 35.0779 52.6827 29.2494C51.4739 23.4206 46.7659 18.9598 40.8805 18.0663ZM38.6924 39.433C37.7171 39.4593 36.7465 39.2899 35.8378 38.9348C34.9291 38.5797 34.1007 38.0461 33.4016 37.3656C32.7025 36.6851 32.1469 35.8714 31.7675 34.9725C31.3881 34.0737 31.1926 33.108 31.1926 32.1324C31.1926 31.1568 31.3881 30.191 31.7675 29.2922C32.1469 28.3934 32.7025 27.5797 33.4016 26.8992C34.1007 26.2186 34.9291 25.6851 35.8378 25.33C36.7465 24.9749 37.7171 24.8055 38.6924 24.8317C42.6225 24.9693 45.7381 28.1943 45.7403 32.1271C45.742 36.0595 42.6298 39.2877 38.6996 39.4293" fill="#FF7A59"/>
</svg>
