<svg width="56" height="52" viewBox="0 0 56 52" fill="none" xmlns="http://www.w3.org/2000/svg">
<g clip-path="url(#clip0_1_205)">
<path d="M38.9262 20.0425H53.2153C54.5653 20.0425 55.6596 21.1284 55.6596 22.468V35.3833C55.6596 40.3067 51.6376 44.2978 46.6761 44.2978H46.6336C41.6721 44.2985 37.6495 40.3079 37.6487 35.3846C37.6487 35.3842 37.6487 35.3838 37.6487 35.3833V21.3102C37.6488 20.61 38.2207 20.0425 38.9262 20.0425Z" fill="#5059C9"/>
<path d="M48.584 17.4891C51.7812 17.4891 54.3732 14.9171 54.3732 11.7444C54.3732 8.57174 51.7812 5.99976 48.584 5.99976C45.3867 5.99976 42.7947 8.57174 42.7947 11.7444C42.7947 14.9171 45.3867 17.4891 48.584 17.4891Z" fill="#5059C9"/>
<path d="M30.573 17.4893C35.1913 17.4893 38.9352 13.7742 38.9352 9.19143C38.9352 4.60864 35.1913 0.893555 30.573 0.893555C25.9547 0.893555 22.2108 4.60864 22.2108 9.19143C22.2108 13.7742 25.9547 17.4893 30.573 17.4893Z" fill="#7B83EB"/>
<path d="M41.723 20.0425H18.1365C16.8026 20.0752 15.7474 21.1737 15.7784 22.4974V37.228C15.5921 45.1713 21.9251 51.763 29.9298 51.9574C37.9344 51.763 44.2674 45.1713 44.0812 37.228V22.4974C44.1121 21.1737 43.0569 20.0752 41.723 20.0425Z" fill="#7B83EB"/>
<path opacity="0.1" d="M31.2162 20.0425V40.685C31.2098 41.6316 30.6318 42.482 29.7496 42.8425C29.4688 42.9604 29.1669 43.0211 28.862 43.0212H16.9104C16.7432 42.5999 16.5888 42.1786 16.4602 41.7446C16.0098 40.2798 15.7801 38.757 15.7783 37.2255V22.4935C15.7474 21.172 16.8008 20.0752 18.1326 20.0425H31.2162Z" fill="black"/>
<path opacity="0.2" d="M29.9298 20.0425V41.9617C29.9297 42.2643 29.8684 42.5638 29.7496 42.8425C29.3864 43.7178 28.5294 44.2915 27.5755 44.2978H17.5151C17.2964 43.8765 17.0906 43.4553 16.9104 43.0212C16.7303 42.5872 16.5888 42.1787 16.4602 41.7446C16.0098 40.2798 15.7801 38.757 15.7783 37.2255V22.4935C15.7474 21.172 16.8008 20.0752 18.1326 20.0425H29.9298Z" fill="black"/>
<path opacity="0.2" d="M29.9298 20.0425V39.4085C29.92 40.6947 28.8717 41.7349 27.5755 41.7446H16.4602C16.0099 40.2798 15.7801 38.757 15.7784 37.2255V22.4935C15.7474 21.172 16.8009 20.0752 18.1327 20.0425H29.9298Z" fill="black"/>
<path opacity="0.2" d="M28.6433 20.0425V39.4085C28.6335 40.6947 27.5852 41.7349 26.289 41.7446H16.4602C16.0099 40.2798 15.7801 38.757 15.7784 37.2255V22.4935C15.7474 21.172 16.8009 20.0752 18.1327 20.0425H28.6433Z" fill="black"/>
<path opacity="0.1" d="M31.2162 13.4426V17.4639C30.9975 17.4766 30.7917 17.4894 30.573 17.4894C30.3542 17.4894 30.1484 17.4766 29.9297 17.4639C29.4955 17.4353 29.0648 17.3669 28.6432 17.2596C26.0381 16.6474 23.8858 14.8344 22.854 12.383C22.6765 11.9714 22.5386 11.5439 22.4423 11.1064H28.8619C30.1601 11.1113 31.2113 12.1544 31.2162 13.4426Z" fill="black"/>
<path opacity="0.2" d="M29.9298 14.719V17.4637C29.4955 17.4351 29.0648 17.3667 28.6433 17.2594C26.0381 16.6472 23.8858 14.8342 22.8541 12.3828H27.5755C28.8737 12.3877 29.9248 13.4308 29.9298 14.719Z" fill="black"/>
<path opacity="0.2" d="M29.9298 14.719V17.4637C29.4955 17.4351 29.0648 17.3667 28.6433 17.2594C26.0381 16.6472 23.8858 14.8342 22.8541 12.3828H27.5755C28.8737 12.3877 29.9248 13.4308 29.9298 14.719Z" fill="black"/>
<path opacity="0.2" d="M28.6433 14.719V17.2594C26.0381 16.6472 23.8858 14.8342 22.8541 12.3828H26.289C27.5872 12.3877 28.6383 13.4308 28.6433 14.719Z" fill="black"/>
<path d="M2.69858 12.3828H26.2851C27.5875 12.3828 28.6433 13.4305 28.6433 14.7228V38.1279C28.6433 39.4203 27.5875 40.4679 26.2851 40.4679H2.69858C1.39621 40.4679 0.340454 39.4202 0.340454 38.1279V14.7228C0.340454 13.4305 1.39624 12.3828 2.69858 12.3828Z" fill="url(#paint0_linear_1_205)"/>
<path d="M20.6979 21.2911H15.9829V34.0315H12.9789V21.2911H8.28583V18.8196H20.6979V21.2911Z" fill="white"/>
</g>
<defs>
<linearGradient id="paint0_linear_1_205" x1="5.25723" y1="10.5544" x2="23.5134" y2="42.4185" gradientUnits="userSpaceOnUse">
<stop stop-color="#5A62C3"/>
<stop offset="0.5" stop-color="#4D55BD"/>
<stop offset="1" stop-color="#3940AB"/>
</linearGradient>
<clipPath id="clip0_1_205">
<rect width="55.3191" height="51.0638" fill="white" transform="translate(0.340454 0.893555)"/>
</clipPath>
</defs>
</svg>
