<svg width="48" height="57" viewBox="0 0 48 57" fill="none" xmlns="http://www.w3.org/2000/svg">
<path d="M47.4042 21.0533C47.4042 33.2673 39.5234 41.6209 28.255 41.6209C22.898 41.6209 18.483 39.4134 16.8301 36.6549L16.9083 39.4916V56.9843H5.40523V11.7542C5.40523 11.125 5.24883 10.965 4.53788 10.965H0.595703V1.35306H10.2112C14.6226 1.35306 15.7281 5.13527 16.0409 6.79177C17.7757 3.8769 22.3435 0.489259 28.8059 0.489259C39.918 0.485704 47.4042 8.75753 47.4042 21.0533ZM35.663 21.1315C35.663 14.5908 31.408 10.1012 26.0475 10.1012C21.6361 10.1012 16.6701 13.0161 16.6701 21.2133C16.6701 26.5702 19.6632 32.1653 25.8911 32.1653C30.4624 32.1618 35.663 28.8523 35.663 21.1315Z" fill="#017737"/>
</svg>
