<svg width="52" height="59" viewBox="0 0 52 59" fill="none" xmlns="http://www.w3.org/2000/svg">
<path d="M45.5274 12.0619C45.4873 11.771 45.2322 11.61 45.0214 11.5923C44.8109 11.5748 40.3577 11.2451 40.3577 11.2451C40.3577 11.2451 37.2648 8.17798 36.9254 7.83849C36.5857 7.49921 35.9224 7.60241 35.6649 7.67812C35.627 7.68927 34.9891 7.88591 33.9341 8.21204C32.9009 5.24238 31.0776 2.51338 27.8698 2.51338C27.7813 2.51338 27.6901 2.51696 27.599 2.52214C26.6867 1.31702 25.5566 0.793457 24.5805 0.793457C17.1082 0.793457 13.5383 10.1242 12.419 14.8658C9.51545 15.7645 7.45276 16.4034 7.18929 16.4861C5.56857 16.9939 5.51732 17.0449 5.3045 18.5704C5.14435 19.7253 0.903687 52.4839 0.903687 52.4839L33.9478 58.6683L51.8523 54.7993C51.8523 54.7993 45.5669 12.3528 45.5274 12.0619ZM32.1077 8.77625L29.3116 9.64069C29.3126 9.44386 29.3136 9.25021 29.3136 9.03843C29.3136 7.1928 29.0572 5.70677 28.6457 4.52875C30.2985 4.73594 31.3993 6.61445 32.1077 8.77625ZM26.5954 4.89473C27.0549 6.04486 27.3537 7.69545 27.3537 9.9228C27.3537 10.0368 27.3527 10.141 27.3517 10.2463C25.5333 10.809 23.5574 11.4198 21.5771 12.0326C22.689 7.74605 24.7732 5.67569 26.5954 4.89473ZM24.3753 2.79548C24.6978 2.79548 25.0227 2.90486 25.3337 3.11863C22.9389 4.24425 20.372 7.07924 19.288 12.7407L14.7234 14.1528C15.9931 9.83454 19.0082 2.79548 24.3753 2.79548Z" fill="#95BF46"/>
<path d="M45.0214 11.5922C44.811 11.5746 40.3577 11.2449 40.3577 11.2449C40.3577 11.2449 37.2649 8.17782 36.9254 7.83833C36.7984 7.71202 36.6271 7.64728 36.4479 7.61938L33.9495 58.6677L51.8523 54.7991C51.8523 54.7991 45.5669 12.3526 45.5274 12.0617C45.4873 11.7709 45.2322 11.6099 45.0214 11.5922Z" fill="#5E8E3E"/>
<path d="M27.8698 21.4741L25.6622 28.0338C25.6622 28.0338 23.7279 27.0026 21.3569 27.0026C17.8809 27.0026 17.706 29.1816 17.706 29.7306C17.706 32.7266 25.5243 33.8745 25.5243 40.8921C25.5243 46.4132 22.0186 49.9684 17.2917 49.9684C11.6194 49.9684 8.71863 46.4421 8.71863 46.4421L10.2374 41.4296C10.2374 41.4296 13.2192 43.9867 15.7352 43.9867C17.3793 43.9867 18.048 42.6937 18.048 41.749C18.048 37.8409 11.6338 37.6666 11.6338 31.245C11.6338 25.8401 15.5174 20.6099 23.3569 20.6099C26.3776 20.6099 27.8698 21.4741 27.8698 21.4741Z" fill="white"/>
</svg>
