<svg width="56" height="56" viewBox="0 0 56 56" fill="none" xmlns="http://www.w3.org/2000/svg">
<path d="M12.1884 35.1872C12.1884 38.367 9.61843 40.9369 6.43867 40.9369C3.25891 40.9369 0.688965 38.367 0.688965 35.1872C0.688965 32.0074 3.25891 29.4375 6.43867 29.4375H12.1884V35.1872ZM15.0632 35.1872C15.0632 32.0074 17.6332 29.4375 20.8129 29.4375C23.9927 29.4375 26.5626 32.0074 26.5626 35.1872V49.5615C26.5626 52.7412 23.9927 55.3112 20.8129 55.3112C17.6332 55.3112 15.0632 52.7412 15.0632 49.5615V35.1872Z" fill="#E01E5A"/>
<path d="M20.8129 12.1012C17.6332 12.1012 15.0632 9.53128 15.0632 6.35152C15.0632 3.17175 17.6332 0.601807 20.8129 0.601807C23.9927 0.601807 26.5626 3.17175 26.5626 6.35152V12.1012H20.8129ZM20.8129 15.0196C23.9927 15.0196 26.5626 17.5896 26.5626 20.7694C26.5626 23.9491 23.9927 26.5191 20.8129 26.5191H6.3951C3.21533 26.5191 0.645386 23.9491 0.645386 20.7694C0.645386 17.5896 3.21533 15.0196 6.3951 15.0196H20.8129Z" fill="#36C5F0"/>
<path d="M43.8553 20.7694C43.8553 17.5896 46.4253 15.0196 49.605 15.0196C52.7848 15.0196 55.3547 17.5896 55.3547 20.7694C55.3547 23.9491 52.7848 26.5191 49.605 26.5191H43.8553V20.7694ZM40.9805 20.7694C40.9805 23.9491 38.4105 26.5191 35.2308 26.5191C32.051 26.5191 29.4811 23.9491 29.4811 20.7694V6.35152C29.4811 3.17175 32.051 0.601807 35.2308 0.601807C38.4105 0.601807 40.9805 3.17175 40.9805 6.35152V20.7694Z" fill="#2EB67D"/>
<path d="M35.2308 43.8118C38.4106 43.8118 40.9805 46.3817 40.9805 49.5615C40.9805 52.7412 38.4106 55.3112 35.2308 55.3112C32.051 55.3112 29.4811 52.7412 29.4811 49.5615V43.8118H35.2308ZM35.2308 40.9369C32.051 40.9369 29.4811 38.367 29.4811 35.1872C29.4811 32.0074 32.051 29.4375 35.2308 29.4375H49.6486C52.8284 29.4375 55.3983 32.0074 55.3983 35.1872C55.3983 38.367 52.8284 40.9369 49.6486 40.9369H35.2308Z" fill="#ECB22E"/>
</svg>
