<svg width="56" height="36" viewBox="0 0 56 36" fill="none" xmlns="http://www.w3.org/2000/svg">
<path d="M28.0811 27.8052C23.0521 27.8052 18.3476 26.0208 14.4541 23.2632C9.58735 19.6945 6.66728 14.1792 5.85615 9.31278C5.85615 8.98835 5.69392 8.50171 5.69392 8.3395C5.53169 6.87957 6.50505 5.41964 8.12731 5.41964C8.61399 5.41964 8.77622 5.41964 9.2629 5.41964C10.3985 10.4483 13.1563 14.017 15.9142 16.288C19.6454 19.37 24.0255 20.5055 27.9189 20.5055C38.3014 20.6678 48.5217 11.4216 55.0107 1.36429C54.524 0.877651 53.8751 0.553223 53.2262 0.553223H2.77385C1.47604 0.553223 0.340454 1.68872 0.340454 2.98643V33.3205C0.340454 34.6182 1.47604 35.7537 2.77385 35.7537H53.2262C54.524 35.7537 55.6596 34.6182 55.6596 33.3205V6.87957C47.0616 21.9655 37.1658 27.8052 28.0811 27.8052Z" fill="#00BAFF"/>
</svg>
