<svg width="56" height="56" viewBox="0 0 56 56" fill="none" xmlns="http://www.w3.org/2000/svg">
<path d="M4.27235 27.9992C4.27235 37.3918 9.73053 45.5079 17.6453 49.3547L6.32667 18.3425C4.96982 21.3809 4.26978 24.6716 4.27235 27.9992ZM44.0188 26.8018C44.0188 23.8693 42.9654 21.8385 42.062 20.2578C40.8592 18.3032 39.7322 16.648 39.7322 14.6935C39.7322 12.5123 41.3861 10.4819 43.7163 10.4819C43.8215 10.4819 43.9213 10.495 44.0242 10.5009C39.8022 6.63332 34.1779 4.27197 28.0005 4.27197C19.7109 4.27197 12.4179 8.5251 8.17511 14.9671C8.73181 14.9838 9.2569 14.9951 9.70208 14.9951C12.184 14.9951 16.0258 14.694 16.0258 14.694C17.3049 14.6186 17.4557 16.4972 16.1784 16.6485C16.1784 16.6485 14.8925 16.7997 13.4622 16.8747L22.103 42.5763L27.2961 27.0027L23.5988 16.8742C22.3211 16.7993 21.1106 16.648 21.1106 16.648C19.8319 16.5731 19.9818 14.6181 21.2605 14.6935C21.2605 14.6935 25.179 14.9946 27.5106 14.9946C29.992 14.9946 33.8343 14.6935 33.8343 14.6935C35.1143 14.6181 35.2647 16.4968 33.9865 16.648C33.9865 16.648 32.6983 16.7993 31.2707 16.8742L39.8456 42.3813L42.2119 34.4724C43.2381 31.1904 44.0188 28.8331 44.0188 26.8018Z" fill="#00749A"/>
<path d="M28.4167 30.0749L21.2975 50.7617C23.474 51.4032 25.7314 51.7289 28.0004 51.7289C30.7636 51.7289 33.4135 51.2507 35.88 50.3838C35.8139 50.2803 35.7573 50.1708 35.7112 50.0569L28.4167 30.0749ZM48.8209 16.6152C48.9229 17.371 48.9807 18.1828 48.9807 19.0551C48.9807 21.463 48.531 24.1697 47.1765 27.5542L39.9286 48.5097C46.9828 44.396 51.7277 36.7535 51.7277 27.9994C51.734 24.0203 50.7341 20.1042 48.8209 16.6152Z" fill="#00749A"/>
<path d="M28.0009 0.340332C12.7497 0.340332 0.341064 12.748 0.341064 27.9992C0.341064 43.2522 12.7492 55.6599 28.0009 55.6599C43.2517 55.6599 55.6621 43.2527 55.6621 27.9992C55.6616 12.748 43.2517 0.340332 28.0009 0.340332ZM28.0009 54.3916C13.449 54.3916 1.60933 42.552 1.60933 27.9992C1.60933 13.4478 13.4486 1.60905 28.0009 1.60905C42.5523 1.60905 54.3911 13.4478 54.3911 27.9992C54.3911 42.552 42.5518 54.3916 28.0009 54.3916Z" fill="#00749A"/>
</svg>
