<svg width="56" height="56" viewBox="0 0 56 56" fill="none" xmlns="http://www.w3.org/2000/svg">
<path d="M34.9147 28.012C34.9157 30.0067 34.5558 31.985 33.8526 33.8516C31.9854 34.5547 30.0065 34.9151 28.0113 34.9155H27.9879C25.9333 34.9129 23.9648 34.5373 22.1483 33.8525C21.4446 31.9857 21.0845 30.007 21.0851 28.012V27.9878C21.0842 25.9935 21.4436 24.0155 22.1461 22.149C24.0133 21.4446 25.9925 21.0841 27.9881 21.085H28.0115C30.0069 21.0841 31.9859 21.4445 33.8528 22.1488C34.5561 24.0151 34.916 25.9932 34.9149 27.9876V28.0118L34.9147 28.012ZM55.2754 23.39H39.13L50.5458 11.9733C49.6498 10.7147 48.6503 9.53293 47.5577 8.44048V8.43962C46.4651 7.34833 45.2837 6.34973 44.0257 5.45411L32.609 16.8708V0.725405C31.0906 0.469971 29.5536 0.34117 28.0139 0.340332L27.9853 0.340332C26.4191 0.341196 24.8851 0.474308 23.3902 0.725405V16.8708L11.9735 5.45411C10.7153 6.34949 9.53437 7.34881 8.4432 8.44156L8.43715 8.44588C7.34644 9.53697 6.34834 10.7169 5.45315 11.9733L16.8707 23.39H0.725527C0.725527 23.39 0.340454 26.4224 0.340454 27.9904V28.0094C0.340454 29.5774 0.47335 31.114 0.725527 32.6098H16.8709L5.45337 44.0265C7.24944 46.5469 9.45299 48.7505 11.9735 50.5466L23.3902 39.129V55.2753C24.9069 55.5294 26.442 55.6579 27.9799 55.6595H28.019C29.5569 55.6581 31.0921 55.5296 32.6088 55.2753V39.129L44.0266 50.5466C45.2843 49.6506 46.4654 48.6517 47.5577 47.5602L47.5603 47.5576C48.6514 46.4651 49.65 45.284 50.5458 44.0265L39.1283 32.6098H55.2754C55.5267 31.1166 55.6579 29.5845 55.6596 28.02V27.9798C55.6579 26.4153 55.5267 24.8832 55.2754 23.39Z" fill="#FF4A00"/>
</svg>
