<svg width="68" height="49" viewBox="0 0 68 49" fill="none" xmlns="http://www.w3.org/2000/svg">
<path fill-rule="evenodd" clip-rule="evenodd" d="M32.5556 8.19206V28.9328H15.2527L32.5556 8.19206ZM32.5556 0.750488C32.5556 3.02608 31.6442 5.21201 30.0236 6.82158C28.3986 8.43541 26.1976 9.34053 23.9063 9.34053C21.6107 9.34053 19.4097 8.43541 17.789 6.82158C16.1641 5.21201 15.2527 3.02608 15.2527 0.750488H32.5556ZM35.4057 28.9371C35.4057 26.6615 36.3171 24.4756 37.942 22.8617C39.5627 21.2522 41.7637 20.347 44.0593 20.347C46.3549 20.347 48.5516 21.2522 50.1766 22.8617C51.7972 24.4756 52.7086 26.6615 52.7086 28.9371H35.4057ZM35.4057 0.750488H52.7129L35.4057 21.4912V0.750488ZM45.0824 46.6893C45.306 46.6935 45.5252 46.6765 45.7401 46.638C45.9551 46.5996 46.17 46.5441 46.3764 46.463C46.5784 46.3861 46.7762 46.2879 46.961 46.1727C47.1459 46.0531 47.3221 45.9208 47.4812 45.7713L48.6677 47.0436C47.8853 47.8463 46.7977 48.4397 45.1039 48.4397C42.2022 48.4397 40.3279 46.527 40.3279 43.944C40.3193 43.3506 40.4268 42.7657 40.646 42.2149C40.8695 41.6642 41.2006 41.1647 41.6218 40.7463C42.0431 40.3236 42.5461 39.9948 43.0963 39.7728C43.6509 39.5466 44.2441 39.4355 44.8417 39.4484C47.7219 39.4484 49.3512 41.6215 49.2093 44.6399H42.3999C42.6407 45.8952 43.5305 46.6935 45.0781 46.6935L45.0824 46.6893ZM47.1502 43.2012C46.9653 42.0313 46.2603 41.1689 44.8546 41.1689C43.5477 41.1689 42.6321 41.9075 42.3999 43.2012C42.3999 43.2012 47.1545 43.2012 47.1502 43.2012ZM0.382996 46.5911L5.61899 41.3055H0.507662V39.649H8.05214V41.3397L2.81184 46.6252H8.12522V48.2818H0.382996L0.382996 46.5911ZM14.006 46.6893C14.2253 46.6935 14.4445 46.6765 14.6595 46.638C14.8787 46.5996 15.0894 46.5441 15.2957 46.463C15.502 46.3861 15.6955 46.2879 15.8846 46.1727C16.0695 46.0531 16.2414 45.9208 16.4005 45.7671L17.5913 47.0436C16.8046 47.8463 15.717 48.4397 14.0232 48.4397C11.1258 48.4397 9.25152 46.527 9.25152 43.944C9.23862 43.3506 9.34609 42.7614 9.56963 42.2149C9.78887 41.6642 10.1242 41.1647 10.5455 40.7463C10.9625 40.3236 11.4654 39.9948 12.02 39.7686C12.5702 39.5466 13.1635 39.4355 13.761 39.4484C16.6412 39.4484 18.2748 41.6215 18.1286 44.6399H11.3236C11.5643 45.8952 12.4542 46.6935 14.0017 46.6935L14.006 46.6893ZM16.0781 43.2012C15.8932 42.0313 15.1882 41.1689 13.7825 41.1689C12.4757 41.1689 11.56 41.9033 11.3279 43.2012C11.3279 43.2012 16.0824 43.2012 16.0781 43.2012ZM29.4475 43.944C29.4475 41.186 31.5281 39.4526 33.8151 39.4526C34.0903 39.4484 34.3654 39.474 34.6319 39.5295C34.8984 39.585 35.1607 39.6704 35.41 39.7814C35.6593 39.8924 35.9001 40.029 36.1193 40.1912C36.3386 40.3535 36.5363 40.5413 36.7169 40.7463V35.6529H38.5697V48.2604H36.7169V47.0735C36.5406 47.287 36.3429 47.4791 36.1236 47.6499C35.9044 47.8207 35.6679 47.9658 35.4143 48.0854C35.165 48.2006 34.8984 48.2903 34.6276 48.3501C34.3568 48.4098 34.0774 48.4397 33.7979 48.4355C31.5797 48.4355 29.4518 46.6893 29.4518 43.944H29.4475ZM36.82 43.927C36.7899 42.8255 36.0978 41.8478 35.0618 41.4464C34.0301 41.0451 32.8522 41.3013 32.0784 42.0911C31.3046 42.881 31.0811 44.055 31.5153 45.0712C31.9451 46.083 32.9468 46.7448 34.0602 46.7448C35.6507 46.7448 36.8157 45.4853 36.82 43.927ZM50.4173 46.4246C50.4202 46.4246 50.4216 46.4246 50.4216 46.4246L50.4173 46.4288V46.4246ZM52.0938 45.5664C52.2013 45.7628 52.3389 45.9421 52.4979 46.1001C52.657 46.2581 52.8375 46.3947 53.0353 46.5057C53.2287 46.6167 53.4394 46.6978 53.6586 46.7533C53.8779 46.8088 54.1014 46.8344 54.3292 46.8259C55.3782 46.8259 55.9198 46.2922 55.9198 45.686C55.9198 44.9943 54.9096 44.8406 53.8048 44.6143C52.326 44.3027 50.7827 43.8202 50.7827 42.0442C50.7827 40.6779 52.0938 39.4142 54.153 39.4313C55.778 39.4313 56.9859 40.0717 57.6694 41.1049L56.1133 41.9502C56.0058 41.7923 55.8811 41.6514 55.7393 41.5233C55.5931 41.3995 55.434 41.2927 55.2664 41.2074C55.0944 41.122 54.9139 41.0579 54.729 41.0152C54.5399 40.9768 54.3507 40.9597 54.1573 40.964C53.1642 40.964 52.657 41.4507 52.657 42.0015C52.657 42.6248 53.4566 42.7956 54.7161 43.0731C56.152 43.3847 57.7726 43.8501 57.7726 45.6475C57.7726 46.8387 56.7237 48.444 54.2433 48.4269C52.4291 48.4269 51.1567 47.7011 50.4216 46.4288L52.0938 45.5664ZM62.798 44.4265L61.3321 46.0147V48.2561H59.4793V35.6486H61.3321V43.9056L65.2612 39.6234H67.5181L64.1091 43.3207L67.6041 48.2604H65.5105L62.8023 44.4265H62.798ZM23.8461 39.4526C23.8432 39.4526 23.8418 39.4526 23.8418 39.4526H23.8461ZM23.8418 39.4526C26.0342 39.4526 27.8827 40.8701 27.8827 43.2182V48.2647H26.0084V43.4531C26.0084 42.0356 25.312 41.1903 23.9106 41.1903C22.5092 41.1903 21.6881 42.0399 21.6881 43.4531V48.2647H19.8009V43.2182C19.8009 40.8701 21.6408 39.4526 23.8418 39.4526Z" fill="#03363D"/>
</svg>
