<svg width="222" height="60" viewBox="0 0 222 60" fill="none" xmlns="http://www.w3.org/2000/svg">
<g clip-path="url(#clip0_107_2853)">
<path d="M50.8803 11.826C46.8301 6.59775 41.1346 2.73883 34.553 0.996091C28.0981 -0.746647 21.1368 -0.248722 14.935 2.2409C8.73318 4.73053 3.5439 9.21186 0.126568 14.938L10.8848 21.1621C9.36602 23.7762 8.48005 26.8882 8.48005 29.8758C8.48005 32.9878 9.23945 35.9753 10.8848 38.7139L0 44.689C3.29076 50.4152 8.48005 55.021 14.6819 57.5106C20.8837 60.1247 27.7184 60.6227 34.2999 58.8799C40.8814 57.2617 46.577 53.5272 50.7537 48.299C54.9304 43.0708 57.0821 36.5978 57.2087 30.0002C57.0821 23.5272 54.9305 17.0542 50.8803 11.826ZM40.5017 37.967L34.2999 34.4816C33.2873 36.2243 31.7685 37.4691 29.87 38.216C27.9715 38.9629 25.9464 39.0874 24.0479 38.5895C22.1494 38.0915 20.3774 36.9712 19.2383 35.3529C18.0992 33.7347 17.3398 31.8675 17.3398 29.8758C17.3398 27.8841 17.9726 26.0168 19.2383 24.3986C20.504 22.9048 22.1494 21.7845 24.1745 21.2865C26.073 20.7886 28.0981 20.9131 29.9966 21.66C31.8951 22.4069 33.4139 23.7762 34.2999 25.5189L40.5017 22.1579C41.894 24.5231 42.6534 27.2617 42.6534 30.1247C42.6534 32.8633 41.894 35.4774 40.5017 37.967ZM48.8552 47.0542C45.0582 51.909 39.6157 55.3944 33.667 56.8882C27.7184 58.382 21.2634 58.0085 15.5678 55.5189C10.5051 53.4027 6.20182 49.9173 3.1642 45.4359L11.7708 40.5812C13.6693 43.1953 16.3273 45.187 19.3649 46.5563C23.0353 48.05 27.2121 48.4235 31.1357 47.4276C35.0593 46.4318 38.6032 44.1911 41.008 41.0791C43.5393 37.967 44.805 33.9836 44.9316 30.1247C44.9316 26.1413 43.6659 22.2824 41.1346 19.0459C38.6032 15.8094 35.1859 13.5687 31.2623 12.5729C27.3387 11.577 23.1619 11.826 19.4914 13.3197C16.4538 14.5646 13.7959 16.5563 11.7708 19.1704L3.1642 14.3156C6.20182 9.95875 10.6317 6.47327 15.6944 4.35709C21.39 1.99194 27.8449 1.6185 33.9202 3.23676C39.8689 4.85501 45.3113 8.34049 48.9818 13.1953C52.6522 18.05 54.8039 24.0251 54.8039 30.1247C54.8039 36.2243 52.6522 42.1994 48.8552 47.0542Z" fill="white"/>
<path d="M77.8392 16.1826C75.8141 16.1826 74.0422 16.6805 72.5234 17.6764C71.0045 18.6722 69.8654 20.0415 69.106 21.6598C68.3466 23.4025 67.9669 25.2698 67.9669 27.5104V27.8839C67.9669 30 68.3466 31.9917 69.106 33.61C69.8654 35.3527 71.0045 36.5976 72.5234 37.5934C74.0422 38.5893 75.9407 39.0872 78.2189 39.0872C79.4846 39.0872 80.6237 38.9627 81.8894 38.7137C83.0285 38.4648 84.041 37.9669 84.927 37.4689V32.6142H82.5222L82.1425 35.7262C81.6362 35.9751 81.13 36.2241 80.3706 36.3486C79.7377 36.4731 78.9783 36.5976 78.2189 36.5976C76.7001 36.5976 75.3079 36.2241 74.2953 35.6017C73.1562 34.8548 72.3968 33.859 71.8905 32.6142C71.3842 31.2449 71.0045 29.7511 71.0045 27.8839V27.3859C71.0045 25.6432 71.2577 24.1494 71.764 22.9046C72.2702 21.5353 73.0296 20.5395 74.0422 19.7926C75.0547 19.0457 76.3204 18.6722 77.8392 18.6722C78.472 18.6722 78.9783 18.6722 79.4846 18.7967C79.9909 18.9212 80.4971 19.0457 80.8768 19.1702C81.2565 19.2947 81.6362 19.5436 82.016 19.7926L82.3957 23.2781H84.8004V18.5478C84.041 17.8009 83.0285 17.3029 81.7628 16.805C80.6237 16.4316 79.2315 16.1826 77.8392 16.1826Z" fill="white"/>
<path d="M97.7103 23.029C96.5712 22.2821 95.3055 21.9087 93.6602 21.9087C92.1413 21.9087 90.7491 22.2821 89.7366 23.029C88.5974 23.7759 87.7115 24.7718 87.2052 26.0166C86.5724 27.2614 86.3192 28.7552 86.3192 30.3734V30.7469C86.3192 32.3651 86.5724 33.8589 87.2052 35.1037C87.838 36.3485 88.724 37.3444 89.7366 38.0913C90.8757 38.8382 92.1413 39.2116 93.7867 39.2116C95.3055 39.2116 96.6978 38.8382 97.7103 38.0913C98.8494 37.3444 99.7354 36.3485 100.242 35.1037C100.875 33.8589 101.128 32.3651 101.128 30.7469V30.3734C101.128 28.7552 100.875 27.2614 100.242 26.0166C99.7354 24.6473 98.8494 23.7759 97.7103 23.029ZM98.2166 30.6224C98.2166 31.7427 98.09 32.863 97.7103 33.7344C97.3306 34.6058 96.8243 35.3527 96.1915 35.8506C95.5587 36.3485 94.6727 36.5975 93.7867 36.5975C92.7742 36.5975 92.0148 36.3485 91.2554 35.8506C90.6225 35.3527 90.1163 34.6058 89.7366 33.7344C89.3568 32.863 89.2303 31.7427 89.2303 30.6224V30.2489C89.2303 29.1286 89.3568 28.0083 89.7366 27.1369C90.1163 26.2655 90.6225 25.5187 91.2554 25.0207C91.8882 24.5228 92.7742 24.2738 93.6602 24.2738C94.6727 24.2738 95.4321 24.5228 96.0649 25.0207C96.6978 25.5187 97.2041 26.2655 97.5838 27.1369C97.9635 28.0083 98.09 29.1286 98.09 30.2489V30.6224H98.2166Z" fill="white"/>
<path d="M117.328 22.2822H114.291H112.013V24.2739L114.291 24.6474V34.108C113.911 34.8548 113.405 35.4772 112.645 35.9752C111.886 36.3486 111 36.5976 109.987 36.5976C108.848 36.5976 108.089 36.2241 107.583 35.6017C107.076 34.9793 106.823 33.7345 106.823 31.9918V22.2822H103.786H101.887V24.2739L103.786 24.6474V31.9918C103.786 34.3569 104.292 36.2241 105.304 37.3445C106.317 38.4648 107.709 39.0872 109.608 39.0872C110.747 39.0872 111.633 38.8382 112.519 38.3403C113.405 37.8424 114.038 37.22 114.544 36.3486L114.797 38.8382H119.48V36.971L117.582 36.5976V22.2822H117.328Z" fill="white"/>
<path d="M133.023 23.029C132.01 22.2821 130.871 21.9087 129.479 21.9087C128.466 21.9087 127.454 22.1577 126.694 22.5311C125.935 22.9045 125.176 23.5269 124.669 24.2738L124.416 22.2821H119.227V24.2738L121.758 24.6473V42.6971L119.354 43.0705V45.0622H127.454V43.0705L124.796 42.6971V36.9709C125.302 37.5933 126.062 38.0913 126.821 38.4647C127.58 38.8382 128.466 38.9626 129.479 38.9626C130.871 38.9626 132.01 38.5892 133.023 37.9668C134.035 37.3444 134.795 36.3485 135.301 35.2282C135.807 33.9834 136.06 32.6141 136.06 31.1203V30.7469C136.06 29.0041 135.807 27.3859 135.301 26.1411C134.668 24.7718 134.035 23.7759 133.023 23.029ZM132.896 31.1203C132.896 32.7386 132.517 34.1079 131.757 35.1037C130.998 36.0996 129.859 36.5975 128.466 36.5975C127.58 36.5975 126.821 36.473 126.188 36.0996C125.555 35.7261 125.049 35.2282 124.669 34.4813V26.5145C125.049 25.8921 125.555 25.2697 126.188 24.8962C126.821 24.5228 127.58 24.2738 128.466 24.2738C129.479 24.2738 130.238 24.5228 130.871 25.1452C131.504 25.6431 132.01 26.39 132.39 27.3859C132.77 28.3817 132.896 29.5021 132.896 30.7469V31.1203Z" fill="white"/>
<path d="M149.224 23.029C148.084 22.2821 146.819 21.9087 145.173 21.9087C143.655 21.9087 142.262 22.2821 141.25 23.029C140.111 23.7759 139.225 24.7718 138.718 26.0166C138.086 27.2614 137.832 28.7552 137.832 30.3734V30.7469C137.832 32.3651 138.086 33.8589 138.718 35.1037C139.351 36.3485 140.237 37.3444 141.25 38.0913C142.389 38.8382 143.655 39.2116 145.3 39.2116C146.819 39.2116 148.211 38.8382 149.224 38.0913C150.363 37.3444 151.249 36.3485 151.755 35.1037C152.388 33.8589 152.641 32.3651 152.641 30.7469V30.3734C152.641 28.7552 152.388 27.2614 151.755 26.0166C151.249 24.6473 150.363 23.7759 149.224 23.029ZM149.73 30.6224C149.73 31.7427 149.603 32.863 149.224 33.7344C148.844 34.6058 148.338 35.3527 147.705 35.8506C147.072 36.3485 146.186 36.5975 145.3 36.5975C144.287 36.5975 143.528 36.3485 142.769 35.8506C142.136 35.3527 141.629 34.6058 141.25 33.7344C140.87 32.863 140.743 31.7427 140.743 30.6224V30.2489C140.743 29.1286 140.87 28.0083 141.25 27.1369C141.629 26.2655 142.136 25.5187 142.769 25.0207C143.401 24.5228 144.287 24.2738 145.173 24.2738C146.186 24.2738 146.945 24.5228 147.578 25.0207C148.211 25.5187 148.717 26.2655 149.097 27.1369C149.477 28.0083 149.603 29.1286 149.603 30.2489V30.6224H149.73Z" fill="white"/>
<path d="M169.981 28.2577C169.981 26.1415 169.474 24.5233 168.462 23.4029C167.449 22.4071 166.057 21.7847 164.285 21.7847C163.273 21.7847 162.26 22.0336 161.374 22.5316C160.488 23.0295 159.855 23.6519 159.222 24.5233L158.969 22.0336H153.78V24.0253L156.311 24.3988V36.2245L153.78 36.5979V38.4652H161.88V36.5979L159.349 36.2245V26.515C159.729 25.7681 160.235 25.2701 160.994 24.7722C161.627 24.3988 162.387 24.1498 163.272 24.1498C164.412 24.1498 165.298 24.3988 165.93 25.0212C166.563 25.6436 166.816 26.6394 166.816 28.1332V36.1L164.285 36.4735V38.3407H172.385V36.4735L169.854 36.1V28.2577H169.981Z" fill="white"/>
<path d="M190.231 28.2577C190.231 26.1415 189.725 24.5233 188.713 23.4029C187.7 22.4071 186.308 21.7847 184.536 21.7847C183.523 21.7847 182.511 22.0336 181.625 22.5316C180.739 23.0295 180.106 23.6519 179.473 24.5233L179.22 22.0336H174.031V24.0253L176.562 24.3988V36.2245L174.031 36.5979V38.4652H182.131V36.5979L179.6 36.2245V26.515C179.979 25.7681 180.486 25.2701 181.245 24.7722C181.878 24.3988 182.637 24.1498 183.523 24.1498C184.662 24.1498 185.548 24.3988 186.181 25.0212C186.814 25.6436 187.067 26.6394 187.067 28.1332V36.1L184.536 36.4735V38.3407H192.636V36.4735L190.105 36.1V28.2577H190.231Z" fill="white"/>
<path d="M199.724 22.2822H194.155V24.1494L196.686 24.5229V36.3486L194.155 36.7221V38.7138H202.255V36.7221L199.724 36.3486V22.2822Z" fill="white"/>
<path d="M219.469 36.4733L213.773 29.2533L218.456 24.5231L220.608 24.1496V22.2824H213.393V24.1496L215.165 24.3986L209.217 30.2492V14.938H203.648V16.9297L206.179 17.3031V36.3488L203.648 36.7222V38.7139H211.748V36.7222L209.217 36.3488V33.7347L211.748 31.1206L216.051 36.4733V36.5977L214.406 36.7222V38.7139H222V36.7222L219.469 36.4733Z" fill="white"/>
<path d="M198.205 19.2948C199.471 19.2948 200.483 18.299 200.483 17.0541C200.483 15.8093 199.471 14.8135 198.205 14.8135C196.94 14.8135 195.927 15.8093 195.927 17.0541C196.054 18.299 197.066 19.2948 198.205 19.2948Z" fill="white"/>
</g>
<defs>
<clipPath id="clip0_107_2853">
<rect width="222" height="60" fill="white"/>
</clipPath>
</defs>
</svg>
