<svg width="222" height="60" viewBox="0 0 222 60" fill="none" xmlns="http://www.w3.org/2000/svg">
<g clip-path="url(#clip0_22_1205)">
<path d="M50.8803 11.8257C46.8301 6.59751 41.1346 2.73859 34.553 0.995847C28.0981 -0.746891 21.1368 -0.248966 14.935 2.24066C8.73318 4.73029 3.5439 9.21162 0.126568 14.9378L10.8848 21.1618C9.36602 23.7759 8.48005 26.888 8.48005 29.8755C8.48005 32.9875 9.23945 35.9751 10.8848 38.7137L0 44.6888C3.29076 50.4149 8.48005 55.0207 14.6819 57.5104C20.8837 60.1245 27.7184 60.6224 34.2999 58.8797C40.8814 57.2614 46.577 53.527 50.7537 48.2988C54.9304 43.0705 57.0821 36.5975 57.2087 30C57.0821 23.527 54.9305 17.0539 50.8803 11.8257ZM40.5017 37.9668L34.2999 34.4813C33.2873 36.2241 31.7685 37.4689 29.87 38.2158C27.9715 38.9627 25.9464 39.0871 24.0479 38.5892C22.1494 38.0913 20.3774 36.971 19.2383 35.3527C18.0992 33.7344 17.3398 31.8672 17.3398 29.8755C17.3398 27.8838 17.9726 26.0166 19.2383 24.3983C20.504 22.9046 22.1494 21.7842 24.1745 21.2863C26.073 20.7884 28.0981 20.9129 29.9966 21.6597C31.8951 22.4066 33.4139 23.7759 34.2999 25.5187L40.5017 22.1577C41.894 24.5228 42.6534 27.2614 42.6534 30.1245C42.6534 32.8631 41.894 35.4772 40.5017 37.9668ZM48.8552 47.0539C45.0582 51.9087 39.6157 55.3942 33.667 56.888C27.7184 58.3817 21.2634 58.0083 15.5678 55.5187C10.5051 53.4025 6.20182 49.917 3.1642 45.4357L11.7708 40.5809C13.6693 43.195 16.3273 45.1867 19.3649 46.556C23.0353 48.0498 27.2121 48.4232 31.1357 47.4274C35.0593 46.4315 38.6032 44.1909 41.008 41.0788C43.5393 37.9668 44.805 33.9834 44.9316 30.1245C44.9316 26.1411 43.6659 22.2822 41.1346 19.0456C38.6032 15.8091 35.1859 13.5685 31.2623 12.5726C27.3387 11.5768 23.1619 11.8257 19.4914 13.3195C16.4538 14.5643 13.7959 16.556 11.7708 19.1701L3.1642 14.3153C6.20182 9.9585 10.6317 6.47303 15.6944 4.35684C21.39 1.9917 27.8449 1.61825 33.9202 3.23651C39.8689 4.85477 45.3113 8.34025 48.9818 13.195C52.6522 18.0498 54.8039 24.0249 54.8039 30.1245C54.8039 36.2241 52.6522 42.1992 48.8552 47.0539Z" fill="#863EFF"/>
<path d="M77.8392 16.1826C75.8141 16.1826 74.0422 16.6805 72.5234 17.6764C71.0045 18.6722 69.8654 20.0415 69.106 21.6598C68.3466 23.4025 67.9669 25.2698 67.9669 27.5104V27.8839C67.9669 30 68.3466 31.9917 69.106 33.61C69.8654 35.3527 71.0045 36.5976 72.5234 37.5934C74.0422 38.5893 75.9407 39.0872 78.2189 39.0872C79.4846 39.0872 80.6237 38.9627 81.8894 38.7137C83.0285 38.4648 84.041 37.9669 84.927 37.4689V32.6142H82.5222L82.1425 35.7262C81.6362 35.9751 81.13 36.2241 80.3706 36.3486C79.7377 36.4731 78.9783 36.5976 78.2189 36.5976C76.7001 36.5976 75.3079 36.2241 74.2953 35.6017C73.1562 34.8548 72.3968 33.859 71.8905 32.6142C71.3842 31.2449 71.0045 29.7511 71.0045 27.8839V27.3859C71.0045 25.6432 71.2577 24.1494 71.764 22.9046C72.2702 21.5353 73.0296 20.5395 74.0422 19.7926C75.0547 19.0457 76.3204 18.6722 77.8392 18.6722C78.472 18.6722 78.9783 18.6722 79.4846 18.7967C79.9909 18.9212 80.4971 19.0457 80.8768 19.1702C81.2565 19.2947 81.6362 19.5436 82.016 19.7926L82.3957 23.2781H84.8004V18.5478C84.041 17.8009 83.0285 17.3029 81.7628 16.805C80.6237 16.4316 79.2315 16.1826 77.8392 16.1826Z" fill="black"/>
<path d="M97.7103 23.0291C96.5712 22.2822 95.3055 21.9088 93.6602 21.9088C92.1413 21.9088 90.7491 22.2822 89.7366 23.0291C88.5974 23.776 87.7115 24.7718 87.2052 26.0166C86.5724 27.2614 86.3192 28.7552 86.3192 30.3735V30.7469C86.3192 32.3652 86.5724 33.859 87.2052 35.1038C87.838 36.3486 88.724 37.3444 89.7366 38.0913C90.8757 38.8382 92.1413 39.2117 93.7867 39.2117C95.3055 39.2117 96.6978 38.8382 97.7103 38.0913C98.8494 37.3444 99.7354 36.3486 100.242 35.1038C100.875 33.859 101.128 32.3652 101.128 30.7469V30.3735C101.128 28.7552 100.875 27.2614 100.242 26.0166C99.7354 24.6473 98.8494 23.776 97.7103 23.0291ZM98.2166 30.6224C98.2166 31.7428 98.09 32.8631 97.7103 33.7345C97.3306 34.6058 96.8243 35.3527 96.1915 35.8507C95.5587 36.3486 94.6727 36.5975 93.7867 36.5975C92.7742 36.5975 92.0148 36.3486 91.2554 35.8507C90.6225 35.3527 90.1163 34.6058 89.7366 33.7345C89.3568 32.8631 89.2303 31.7428 89.2303 30.6224V30.249C89.2303 29.1287 89.3568 28.0083 89.7366 27.137C90.1163 26.2656 90.6225 25.5187 91.2554 25.0208C91.8882 24.5229 92.7742 24.2739 93.6602 24.2739C94.6727 24.2739 95.4321 24.5229 96.0649 25.0208C96.6978 25.5187 97.2041 26.2656 97.5838 27.137C97.9635 28.0083 98.09 29.1287 98.09 30.249V30.6224H98.2166Z" fill="black"/>
<path d="M117.328 22.2822H114.291H112.013V24.2739L114.291 24.6473V34.1079C113.911 34.8548 113.405 35.4772 112.645 35.9751C111.886 36.3486 111 36.5975 109.987 36.5975C108.848 36.5975 108.089 36.2241 107.583 35.6017C107.076 34.9793 106.823 33.7344 106.823 31.9917V22.2822H103.786H101.887V24.2739L103.786 24.6473V31.9917C103.786 34.3569 104.292 36.2241 105.304 37.3444C106.317 38.4647 107.709 39.0871 109.608 39.0871C110.747 39.0871 111.633 38.8382 112.519 38.3403C113.405 37.8423 114.038 37.2199 114.544 36.3486L114.797 38.8382H119.48V36.971L117.582 36.5975V22.2822H117.328Z" fill="black"/>
<path d="M133.023 23.0291C132.01 22.2822 130.871 21.9088 129.479 21.9088C128.466 21.9088 127.454 22.1577 126.694 22.5312C125.935 22.9046 125.176 23.527 124.669 24.2739L124.416 22.2822H119.227V24.2739L121.758 24.6473V42.6971L119.354 43.0706V45.0623H127.454V43.0706L124.796 42.6971V36.971C125.302 37.5934 126.062 38.0913 126.821 38.4648C127.58 38.8382 128.466 38.9627 129.479 38.9627C130.871 38.9627 132.01 38.5892 133.023 37.9668C134.035 37.3444 134.795 36.3486 135.301 35.2283C135.807 33.9834 136.06 32.6141 136.06 31.1204V30.7469C136.06 29.0042 135.807 27.3859 135.301 26.1411C134.668 24.7718 134.035 23.776 133.023 23.0291ZM132.896 31.1204C132.896 32.7386 132.517 34.1079 131.757 35.1038C130.998 36.0996 129.859 36.5975 128.466 36.5975C127.58 36.5975 126.821 36.4731 126.188 36.0996C125.555 35.7262 125.049 35.2283 124.669 34.4814V26.5146C125.049 25.8922 125.555 25.2697 126.188 24.8963C126.821 24.5229 127.58 24.2739 128.466 24.2739C129.479 24.2739 130.238 24.5229 130.871 25.1453C131.504 25.6432 132.01 26.3901 132.39 27.3859C132.77 28.3818 132.896 29.5021 132.896 30.7469V31.1204Z" fill="black"/>
<path d="M149.224 23.0291C148.084 22.2822 146.819 21.9088 145.173 21.9088C143.655 21.9088 142.262 22.2822 141.25 23.0291C140.111 23.776 139.225 24.7718 138.718 26.0166C138.086 27.2614 137.832 28.7552 137.832 30.3735V30.7469C137.832 32.3652 138.086 33.859 138.718 35.1038C139.351 36.3486 140.237 37.3444 141.25 38.0913C142.389 38.8382 143.655 39.2117 145.3 39.2117C146.819 39.2117 148.211 38.8382 149.224 38.0913C150.363 37.3444 151.249 36.3486 151.755 35.1038C152.388 33.859 152.641 32.3652 152.641 30.7469V30.3735C152.641 28.7552 152.388 27.2614 151.755 26.0166C151.249 24.6473 150.363 23.776 149.224 23.0291ZM149.73 30.6224C149.73 31.7428 149.603 32.8631 149.224 33.7345C148.844 34.6058 148.338 35.3527 147.705 35.8507C147.072 36.3486 146.186 36.5975 145.3 36.5975C144.287 36.5975 143.528 36.3486 142.769 35.8507C142.136 35.3527 141.629 34.6058 141.25 33.7345C140.87 32.8631 140.743 31.7428 140.743 30.6224V30.249C140.743 29.1287 140.87 28.0083 141.25 27.137C141.629 26.2656 142.136 25.5187 142.769 25.0208C143.401 24.5229 144.287 24.2739 145.173 24.2739C146.186 24.2739 146.945 24.5229 147.578 25.0208C148.211 25.5187 148.717 26.2656 149.097 27.137C149.477 28.0083 149.603 29.1287 149.603 30.249V30.6224H149.73Z" fill="black"/>
<path d="M169.981 28.2573C169.981 26.1411 169.474 24.5228 168.462 23.4025C167.449 22.4066 166.057 21.7842 164.285 21.7842C163.273 21.7842 162.26 22.0332 161.374 22.5311C160.488 23.0291 159.855 23.6515 159.222 24.5228L158.969 22.0332H153.78V24.0249L156.311 24.3983V36.2241L153.78 36.5975V38.4647H161.88V36.5975L159.349 36.2241V26.5145C159.729 25.7676 160.235 25.2697 160.994 24.7718C161.627 24.3983 162.387 24.1494 163.272 24.1494C164.412 24.1494 165.298 24.3983 165.93 25.0208C166.563 25.6432 166.816 26.639 166.816 28.1328V36.0996L164.285 36.473V38.3403H172.385V36.473L169.854 36.0996V28.2573H169.981Z" fill="black"/>
<path d="M190.231 28.2573C190.231 26.1411 189.725 24.5228 188.713 23.4025C187.7 22.4066 186.308 21.7842 184.536 21.7842C183.523 21.7842 182.511 22.0332 181.625 22.5311C180.739 23.0291 180.106 23.6515 179.473 24.5228L179.22 22.0332H174.031V24.0249L176.562 24.3983V36.2241L174.031 36.5975V38.4647H182.131V36.5975L179.6 36.2241V26.5145C179.979 25.7676 180.486 25.2697 181.245 24.7718C181.878 24.3983 182.637 24.1494 183.523 24.1494C184.662 24.1494 185.548 24.3983 186.181 25.0208C186.814 25.6432 187.067 26.639 187.067 28.1328V36.0996L184.536 36.473V38.3403H192.636V36.473L190.105 36.0996V28.2573H190.231Z" fill="black"/>
<path d="M199.724 22.2822H194.155V24.1494L196.686 24.5228V36.3486L194.155 36.722V38.7137H202.255V36.722L199.724 36.3486V22.2822Z" fill="black"/>
<path d="M219.469 36.4731L213.773 29.2532L218.456 24.5229L220.608 24.1494V22.2822H213.393V24.1494L215.165 24.3984L209.217 30.249V14.9378H203.648V16.9295L206.179 17.3029V36.3486L203.648 36.722V38.7137H211.748V36.722L209.217 36.3486V33.7345L211.748 31.1204L216.051 36.4731V36.5976L214.406 36.722V38.7137H222V36.722L219.469 36.4731Z" fill="black"/>
<path d="M198.205 19.2946C199.471 19.2946 200.483 18.2988 200.483 17.054C200.483 15.8091 199.471 14.8133 198.205 14.8133C196.94 14.8133 195.927 15.8091 195.927 17.054C196.054 18.2988 197.066 19.2946 198.205 19.2946Z" fill="black"/>
</g>
<defs>
<clipPath id="clip0_22_1205">
<rect width="222" height="60" fill="white"/>
</clipPath>
</defs>
</svg>
